<svg width="1480" height="1058" viewBox="0 0 1480 1058" fill="none" xmlns="http://www.w3.org/2000/svg">
<rect width="1480" height="1058" fill="white"/>
<path d="M596 288H884V0H596V288Z" fill="#F0F0F0"/>
<path d="M619.04 267.84H869.6V34.5601H619.04V267.84Z" fill="#F0F0F0"/>
<path d="M662.969 267.84V34.5601" stroke="#CBCBCB" stroke-width="1.33333"/>
<path d="M662.964 274.295C662.017 274.295 661.304 274.761 660.826 275.695C660.349 276.626 660.111 278.028 660.111 279.901C660.111 281.765 660.349 283.164 660.826 284.098C661.304 285.031 662.017 285.498 662.964 285.498C663.918 285.498 664.634 285.031 665.11 284.098C665.589 283.164 665.828 281.765 665.828 279.901C665.828 278.028 665.589 276.626 665.11 275.695C664.634 274.761 663.918 274.295 662.964 274.295ZM662.964 272.836C664.49 272.836 665.656 273.44 666.461 274.648C667.266 275.853 667.668 277.604 667.668 279.901C667.668 282.191 667.266 283.94 666.461 285.148C665.656 286.353 664.49 286.956 662.964 286.956C661.439 286.956 660.274 286.353 659.469 285.148C658.664 283.94 658.262 282.191 658.262 279.901C658.262 277.604 658.664 275.853 659.469 274.648C660.274 273.44 661.439 272.836 662.964 272.836Z" fill="black"/>
<path d="M744.32 267.84V34.5601" stroke="#CBCBCB" stroke-width="1.33333"/>
<path d="M734.459 273.081H741.686V274.633H736.145V277.967C736.411 277.875 736.677 277.807 736.944 277.763C737.212 277.718 737.48 277.696 737.749 277.696C739.267 277.696 740.47 278.112 741.357 278.944C742.245 279.776 742.69 280.903 742.69 282.324C742.69 283.789 742.234 284.927 741.322 285.74C740.41 286.551 739.124 286.956 737.466 286.956C736.894 286.956 736.312 286.907 735.719 286.81C735.128 286.713 734.516 286.567 733.884 286.373V284.521C734.431 284.818 734.995 285.04 735.579 285.186C736.162 285.331 736.778 285.404 737.428 285.404C738.48 285.404 739.312 285.128 739.925 284.576C740.539 284.024 740.846 283.273 740.846 282.324C740.846 281.377 740.539 280.628 739.925 280.076C739.312 279.521 738.48 279.244 737.428 279.244C736.936 279.244 736.445 279.299 735.955 279.408C735.467 279.517 734.968 279.687 734.459 279.918V273.081Z" fill="black"/>
<path d="M750.252 274.295C749.305 274.295 748.593 274.761 748.114 275.695C747.638 276.626 747.4 278.028 747.4 279.901C747.4 281.765 747.638 283.164 748.114 284.098C748.593 285.031 749.305 285.498 750.252 285.498C751.207 285.498 751.922 285.031 752.399 284.098C752.877 283.164 753.116 281.765 753.116 279.901C753.116 278.028 752.877 276.626 752.399 275.695C751.922 274.761 751.207 274.295 750.252 274.295ZM750.252 272.836C751.779 272.836 752.944 273.44 753.749 274.648C754.554 275.853 754.957 277.604 754.957 279.901C754.957 282.191 754.554 283.94 753.749 285.148C752.944 286.353 751.779 286.956 750.252 286.956C748.728 286.956 747.563 286.353 746.758 285.148C745.953 283.94 745.55 282.191 745.55 279.901C745.55 277.604 745.953 275.853 746.758 274.648C747.563 273.44 748.728 272.836 750.252 272.836Z" fill="black"/>
<path d="M825.671 267.84V34.5601" stroke="#CBCBCB" stroke-width="1.33333"/>
<path d="M810.171 285.142H813.179V274.759L809.906 275.415V273.738L813.161 273.082H815.001V285.142H818.009V286.691H810.171V285.142Z" fill="black"/>
<path d="M825.664 274.295C824.717 274.295 824.005 274.761 823.527 275.695C823.05 276.626 822.812 278.028 822.812 279.901C822.812 281.765 823.05 283.164 823.527 284.098C824.005 285.031 824.717 285.498 825.664 285.498C826.619 285.498 827.335 285.031 827.811 284.098C828.289 283.164 828.529 281.765 828.529 279.901C828.529 278.028 828.289 276.626 827.811 275.695C827.335 274.761 826.619 274.295 825.664 274.295ZM825.664 272.836C827.191 272.836 828.357 273.44 829.162 274.648C829.967 275.853 830.369 277.604 830.369 279.901C830.369 282.191 829.967 283.94 829.162 285.148C828.357 286.353 827.191 286.956 825.664 286.956C824.14 286.956 822.975 286.353 822.17 285.148C821.365 283.94 820.963 282.191 820.963 279.901C820.963 277.604 821.365 275.853 822.17 274.648C822.975 273.44 824.14 272.836 825.664 272.836Z" fill="black"/>
<path d="M837.541 274.295C836.594 274.295 835.881 274.761 835.403 275.695C834.926 276.626 834.688 278.028 834.688 279.901C834.688 281.765 834.926 283.164 835.403 284.098C835.881 285.031 836.594 285.498 837.541 285.498C838.496 285.498 839.211 285.031 839.687 284.098C840.166 283.164 840.405 281.765 840.405 279.901C840.405 278.028 840.166 276.626 839.687 275.695C839.211 274.761 838.496 274.295 837.541 274.295ZM837.541 272.836C839.067 272.836 840.233 273.44 841.038 274.648C841.843 275.853 842.245 277.604 842.245 279.901C842.245 282.191 841.843 283.94 841.038 285.148C840.233 286.353 839.067 286.956 837.541 286.956C836.016 286.956 834.852 286.353 834.047 285.148C833.242 283.94 832.839 282.191 832.839 279.901C832.839 277.604 833.242 275.853 834.047 274.648C834.852 273.44 836.016 272.836 837.541 272.836Z" fill="black"/>
<path d="M630.429 267.84H646.699V265.393H630.429V267.84Z" fill="#008FD5" stroke="white" stroke-width="0.666667"/>
<path d="M646.699 267.84H662.969V45.6687H646.699V267.84Z" fill="#008FD5" stroke="white" stroke-width="0.666667"/>
<path d="M662.969 267.84H679.239V87.2646H662.969V267.84Z" fill="#008FD5" stroke="white" stroke-width="0.666667"/>
<path d="M679.239 267.84H695.51V203.555H679.239V267.84Z" fill="#008FD5" stroke="white" stroke-width="0.666667"/>
<path d="M695.51 267.84H711.78V233.451H695.51V267.84Z" fill="#008FD5" stroke="white" stroke-width="0.666667"/>
<path d="M711.78 267.84H728.05V241.592H711.78V267.84Z" fill="#008FD5" stroke="white" stroke-width="0.666667"/>
<path d="M728.05 267.84H744.32V251.958H728.05V267.84Z" fill="#008FD5" stroke="white" stroke-width="0.666667"/>
<path d="M744.32 267.84H760.59V254.449H744.32V267.84Z" fill="#008FD5" stroke="white" stroke-width="0.666667"/>
<path d="M760.59 267.84H776.86V258.231H760.59V267.84Z" fill="#008FD5" stroke="white" stroke-width="0.666667"/>
<path d="M776.86 267.84H793.13V259.299H776.86V267.84Z" fill="#008FD5" stroke="white" stroke-width="0.666667"/>
<path d="M793.13 267.84H809.4V261.078H793.13V267.84Z" fill="#008FD5" stroke="white" stroke-width="0.666667"/>
<path d="M809.401 267.84H825.671V261.701H809.401V267.84Z" fill="#008FD5" stroke="white" stroke-width="0.666667"/>
<path d="M825.671 267.84H841.941V263.792H825.671V267.84Z" fill="#008FD5" stroke="white" stroke-width="0.666667"/>
<path d="M841.941 267.84H858.211V264.281H841.941V267.84Z" fill="#008FD5" stroke="white" stroke-width="0.666667"/>
<path d="M690.072 267.84V34.5601" stroke="#FF0000" stroke-width="5.33333"/>
<path d="M619.04 267.84V34.5601" stroke="#F0F0F0" stroke-width="4" stroke-linecap="square"/>
<path d="M869.6 267.84V34.5601" stroke="#F0F0F0" stroke-width="4" stroke-linecap="square"/>
<path d="M619.04 267.84H869.6" stroke="#F0F0F0" stroke-width="4" stroke-linecap="square"/>
<path d="M619.04 34.5601H869.6" stroke="#F0F0F0" stroke-width="4" stroke-linecap="square"/>
<path d="M679.004 9.1429V16.5055H682.338C683.573 16.5055 684.527 16.1863 685.199 15.5479C685.873 14.9095 686.211 13.9995 686.211 12.8179C686.211 11.6447 685.873 10.7389 685.199 10.1005C684.527 9.4621 683.573 9.1429 682.338 9.1429H679.004ZM676.353 6.9631H682.338C684.536 6.9631 686.197 7.4601 687.32 8.4541C688.445 9.4481 689.008 10.9027 689.008 12.8179C689.008 14.7527 688.445 16.2143 687.32 17.2027C686.197 18.1911 684.536 18.6853 682.338 18.6853H679.004V26.5603H676.353V6.9631Z" fill="black"/>
<path d="M697.179 13.5528C695.885 13.5528 694.862 14.0582 694.108 15.069C693.355 16.0798 692.979 17.4644 692.979 19.2228C692.979 20.9812 693.352 22.3658 694.1 23.3766C694.85 24.3874 695.877 24.8928 697.179 24.8928C698.467 24.8928 699.486 24.386 700.236 23.3724C700.989 22.356 701.366 20.9728 701.366 19.2228C701.366 17.4812 700.989 16.1008 700.236 15.0816C699.486 14.0624 698.467 13.5528 697.179 13.5528ZM697.179 11.5074C699.279 11.5074 700.928 12.1906 702.126 13.557C703.327 14.9206 703.928 16.8092 703.928 19.2228C703.928 21.628 703.327 23.5166 702.126 24.8886C700.928 26.2578 699.279 26.9424 697.179 26.9424C695.07 26.9424 693.418 26.2578 692.223 24.8886C691.03 23.5166 690.433 21.628 690.433 19.2228C690.433 16.8092 691.03 14.9206 692.223 13.557C693.418 12.1906 695.07 11.5074 697.179 11.5074Z" fill="black"/>
<path d="M710.264 24.3552V32.1504H707.837V11.8602H710.264V14.0904C710.774 13.2168 711.415 12.5686 712.188 12.1458C712.963 11.7202 713.889 11.5074 714.964 11.5074C716.75 11.5074 718.201 12.2158 719.315 13.6326C720.432 15.0494 720.991 16.9128 720.991 19.2228C720.991 21.5328 720.432 23.3976 719.315 24.8172C718.201 26.234 716.75 26.9424 714.964 26.9424C713.889 26.9424 712.963 26.7296 712.188 26.304C711.415 25.8784 710.774 25.2288 710.264 24.3552ZM718.484 19.2228C718.484 17.4476 718.118 16.0546 717.387 15.0438C716.657 14.033 715.653 13.5276 714.376 13.5276C713.096 13.5276 712.091 14.033 711.36 15.0438C710.63 16.0546 710.264 17.4476 710.264 19.2228C710.264 20.998 710.63 22.391 711.36 23.4018C712.091 24.4126 713.096 24.918 714.376 24.918C715.653 24.918 716.657 24.4126 717.387 23.4018C718.118 22.391 718.484 20.998 718.484 19.2228Z" fill="black"/>
<path d="M724.744 20.76V11.8602H727.159V20.6676C727.159 22.0592 727.429 23.1036 727.969 23.8008C728.513 24.4952 729.327 24.8424 730.414 24.8424C731.716 24.8424 732.745 24.4266 733.501 23.595C734.26 22.7634 734.639 21.6294 734.639 20.193V11.8602H737.054V26.5602H734.639V24.3006C734.054 25.1938 733.373 25.8574 732.598 26.2914C731.825 26.7254 730.926 26.9424 729.901 26.9424C728.213 26.9424 726.931 26.4174 726.054 25.3674C725.181 24.3174 724.744 22.7816 724.744 20.76Z" fill="black"/>
<path d="M742.028 6.1357H744.443V26.5603H742.028V6.1357Z" fill="black"/>
<path d="M756.178 19.1724C754.227 19.1724 752.874 19.395 752.121 19.8402C751.368 20.2854 750.991 21.047 750.991 22.125C750.991 22.9818 751.274 23.6622 751.84 24.1662C752.405 24.6674 753.172 24.918 754.141 24.918C755.482 24.918 756.558 24.4434 757.367 23.4942C758.176 22.545 758.581 21.2836 758.581 19.71V19.1724H756.178ZM760.996 18.1728V26.5602H758.581V24.33C758.029 25.2204 757.342 25.8784 756.518 26.304C755.695 26.7296 754.689 26.9424 753.499 26.9424C751.995 26.9424 750.798 26.5196 749.908 25.674C749.02 24.8284 748.576 23.6972 748.576 22.2804C748.576 20.6284 749.129 19.3824 750.235 18.5424C751.344 17.7024 752.996 17.2824 755.191 17.2824H758.581V17.043C758.581 15.9314 758.215 15.0718 757.484 14.4642C756.754 13.8566 755.727 13.5528 754.406 13.5528C753.566 13.5528 752.747 13.6536 751.949 13.8552C751.154 14.0568 750.389 14.3592 749.656 14.7624V12.528C750.538 12.1864 751.394 11.9316 752.226 11.7636C753.058 11.5928 753.867 11.5074 754.654 11.5074C756.782 11.5074 758.371 12.059 759.421 13.1622C760.471 14.2626 760.996 15.9328 760.996 18.1728Z" fill="black"/>
<path d="M768.358 7.6855V11.8603H773.33V13.7377H768.358V21.7177C768.358 22.9161 768.521 23.6861 768.849 24.0277C769.177 24.3693 769.844 24.5401 770.852 24.5401H773.33V26.5603H770.852C768.988 26.5603 767.701 26.2131 766.993 25.5187C766.284 24.8215 765.93 23.5545 765.93 21.7177V13.7377H764.158V11.8603H765.93V7.6855H768.358Z" fill="black"/>
<path d="M776.507 11.8603H778.922V26.5603H776.507V11.8603ZM776.507 6.1357H778.922V9.1975H776.507V6.1357Z" fill="black"/>
<path d="M789.67 13.5528C788.377 13.5528 787.353 14.0582 786.6 15.069C785.847 16.0798 785.47 17.4644 785.47 19.2228C785.47 20.9812 785.844 22.3658 786.592 23.3766C787.342 24.3874 788.368 24.8928 789.67 24.8928C790.958 24.8928 791.978 24.386 792.728 23.3724C793.481 22.356 793.858 20.9728 793.858 19.2228C793.858 17.4812 793.481 16.1008 792.728 15.0816C791.978 14.0624 790.958 13.5528 789.67 13.5528ZM789.67 11.5074C791.77 11.5074 793.42 12.1906 794.618 13.557C795.819 14.9206 796.42 16.8092 796.42 19.2228C796.42 21.628 795.819 23.5166 794.618 24.8886C793.42 26.2578 791.77 26.9424 789.67 26.9424C787.562 26.9424 785.91 26.2578 784.714 24.8886C783.522 23.5166 782.925 21.628 782.925 19.2228C782.925 16.8092 783.522 14.9206 784.714 13.557C785.91 12.1906 787.562 11.5074 789.67 11.5074Z" fill="black"/>
<path d="M812.643 17.6857V26.5603H810.228V17.7655C810.228 16.3739 809.956 15.3337 809.413 14.6449C808.87 13.9533 808.057 13.6075 806.973 13.6075C805.668 13.6075 804.639 14.0233 803.886 14.8549C803.133 15.6837 802.756 16.8163 802.756 18.2527V26.5603H800.329V11.8603H802.756V14.1451C803.336 13.2603 804.016 12.5995 804.797 12.1627C805.581 11.7259 806.486 11.5075 807.511 11.5075C809.199 11.5075 810.476 12.0297 811.341 13.0741C812.209 14.1185 812.643 15.6557 812.643 17.6857Z" fill="black"/>
<path d="M738.232 386.768C739.209 387.744 740.791 387.744 741.768 386.768L757.678 370.858C758.654 369.882 758.654 368.299 757.678 367.322C756.701 366.346 755.118 366.346 754.142 367.322L740 381.464L725.858 367.322C724.882 366.346 723.299 366.346 722.322 367.322C721.346 368.299 721.346 369.882 722.322 370.858L738.232 386.768ZM737.5 288L737.5 385L742.5 385L742.5 288L737.5 288Z" fill="black"/>
<path d="M549.643 376.166C549.183 377.467 549.864 378.896 551.166 379.357L572.375 386.867C573.677 387.328 575.105 386.646 575.566 385.344C576.027 384.043 575.346 382.614 574.044 382.153L555.191 375.478L561.867 356.625C562.328 355.323 561.646 353.895 560.344 353.434C559.043 352.973 557.614 353.654 557.153 354.956L549.643 376.166ZM724.924 291.744L550.924 374.744L553.076 379.256L727.076 296.256L724.924 291.744Z" fill="black"/>
<path d="M789.643 757.166C789.183 758.467 789.864 759.896 791.166 760.357L812.375 767.867C813.677 768.328 815.105 767.646 815.566 766.344C816.027 765.043 815.346 763.614 814.044 763.153L795.191 756.478L801.867 737.625C802.328 736.323 801.646 734.895 800.344 734.434C799.043 733.973 797.614 734.654 797.153 735.956L789.643 757.166ZM964.924 672.744L790.924 755.744L793.076 760.256L967.076 677.256L964.924 672.744Z" fill="black"/>
<path d="M170.964 375.549C170.163 376.673 170.425 378.234 171.549 379.036L189.871 392.096C190.995 392.897 192.556 392.635 193.358 391.511C194.159 390.387 193.897 388.826 192.773 388.024L176.487 376.415L188.096 360.129C188.897 359.005 188.635 357.444 187.511 356.642C186.387 355.841 184.826 356.103 184.024 357.227L170.964 375.549ZM667.587 291.534L172.587 374.534L173.413 379.466L668.413 296.466L667.587 291.534Z" fill="black"/>
<path d="M883.964 768.549C883.163 769.673 883.425 771.234 884.549 772.036L902.871 785.096C903.995 785.897 905.556 785.635 906.358 784.511C907.159 783.387 906.897 781.826 905.773 781.024L889.487 769.415L901.096 753.129C901.897 752.005 901.635 750.444 900.511 749.642C899.387 748.841 897.826 749.103 897.024 750.227L883.964 768.549ZM1380.59 684.534L885.587 767.534L886.413 772.466L1381.41 689.466L1380.59 684.534Z" fill="black"/>
<path d="M1002.2 366.192C1003.41 365.528 1003.86 364.009 1003.19 362.798L992.373 343.07C991.709 341.859 990.19 341.416 988.979 342.08C987.769 342.744 987.325 344.263 987.989 345.474L997.606 363.01L980.07 372.627C978.859 373.291 978.416 374.81 979.08 376.021C979.744 377.231 981.263 377.675 982.474 377.011L1002.2 366.192ZM760.3 296.4L1000.3 366.4L1001.7 361.6L761.7 291.6L760.3 296.4Z" fill="black"/>
<path d="M706.202 760.192C707.413 759.528 707.856 758.009 707.192 756.798L696.373 737.07C695.709 735.859 694.19 735.416 692.979 736.08C691.769 736.744 691.325 738.263 691.989 739.474L701.606 757.01L684.07 766.627C682.859 767.291 682.416 768.81 683.08 770.021C683.744 771.231 685.263 771.675 686.474 771.011L706.202 760.192ZM464.3 690.4L704.3 760.4L705.7 755.6L465.7 685.6L464.3 690.4Z" fill="black"/>
<path d="M1316.5 365.997C1317.61 365.167 1317.83 363.6 1317 362.497L1303.47 344.52C1302.64 343.417 1301.07 343.195 1299.97 344.026C1298.86 344.856 1298.64 346.424 1299.47 347.527L1311.5 363.506L1295.52 375.533C1294.42 376.364 1294.2 377.931 1295.03 379.034C1295.86 380.137 1297.42 380.359 1298.53 379.528L1316.5 365.997ZM825.651 297.475L1314.65 366.475L1315.35 361.525L826.349 292.525L825.651 297.475Z" fill="black"/>
<path d="M638.503 758.997C639.607 758.167 639.828 756.6 638.997 755.497L625.467 737.52C624.636 736.417 623.069 736.195 621.966 737.026C620.863 737.856 620.641 739.424 621.472 740.527L633.499 756.506L617.52 768.533C616.417 769.364 616.195 770.931 617.026 772.034C617.856 773.137 619.424 773.359 620.527 772.528L638.503 758.997ZM147.651 690.475L636.651 759.475L637.349 754.525L148.349 685.525L147.651 690.475Z" fill="black"/>
<path d="M0 673H288V385H0V673Z" fill="#F0F0F0"/>
<path d="M23.04 652.84H273.6V419.56H23.04V652.84Z" fill="#F0F0F0"/>
<path d="M66.9694 652.84V419.56" stroke="#CBCBCB" stroke-width="1.33333"/>
<path d="M66.9635 659.295C66.0166 659.295 65.3039 659.761 64.8256 660.695C64.3492 661.626 64.111 663.028 64.111 664.901C64.111 666.765 64.3492 668.164 64.8256 669.098C65.3039 670.031 66.0166 670.498 66.9635 670.498C67.9182 670.498 68.6338 670.031 69.1102 669.098C69.5885 668.164 69.8277 666.765 69.8277 664.901C69.8277 663.028 69.5885 661.626 69.1102 660.695C68.6338 659.761 67.9182 659.295 66.9635 659.295ZM66.9635 657.836C68.4899 657.836 69.6556 658.44 70.4606 659.648C71.2656 660.853 71.6681 662.604 71.6681 664.901C71.6681 667.191 71.2656 668.94 70.4606 670.148C69.6556 671.353 68.4899 671.956 66.9635 671.956C65.4391 671.956 64.2743 671.353 63.4693 670.148C62.6643 668.94 62.2618 667.191 62.2618 664.901C62.2618 662.604 62.6643 660.853 63.4693 659.648C64.2743 658.44 65.4391 657.836 66.9635 657.836Z" fill="black"/>
<path d="M148.32 652.84V419.56" stroke="#CBCBCB" stroke-width="1.33333"/>
<path d="M138.459 658.081H145.686V659.633H140.145V662.967C140.411 662.875 140.677 662.807 140.944 662.763C141.212 662.718 141.48 662.696 141.749 662.696C143.267 662.696 144.47 663.112 145.357 663.944C146.245 664.776 146.69 665.903 146.69 667.324C146.69 668.789 146.234 669.927 145.322 670.74C144.41 671.551 143.124 671.956 141.466 671.956C140.894 671.956 140.312 671.907 139.719 671.81C139.128 671.713 138.516 671.567 137.884 671.373V669.521C138.431 669.818 138.995 670.04 139.579 670.186C140.162 670.331 140.778 670.404 141.428 670.404C142.48 670.404 143.312 670.128 143.925 669.576C144.539 669.024 144.846 668.273 144.846 667.324C144.846 666.377 144.539 665.628 143.925 665.076C143.312 664.521 142.48 664.244 141.428 664.244C140.936 664.244 140.445 664.299 139.955 664.408C139.467 664.517 138.968 664.687 138.459 664.918V658.081Z" fill="black"/>
<path d="M154.252 659.295C153.305 659.295 152.592 659.761 152.114 660.695C151.638 661.626 151.4 663.028 151.4 664.901C151.4 666.765 151.638 668.164 152.114 669.098C152.592 670.031 153.305 670.498 154.252 670.498C155.207 670.498 155.922 670.031 156.399 669.098C156.877 668.164 157.116 666.765 157.116 664.901C157.116 663.028 156.877 661.626 156.399 660.695C155.922 659.761 155.207 659.295 154.252 659.295ZM154.252 657.836C155.778 657.836 156.944 658.44 157.749 659.648C158.554 660.853 158.957 662.604 158.957 664.901C158.957 667.191 158.554 668.94 157.749 670.148C156.944 671.353 155.778 671.956 154.252 671.956C152.728 671.956 151.563 671.353 150.758 670.148C149.953 668.94 149.55 667.191 149.55 664.901C149.55 662.604 149.953 660.853 150.758 659.648C151.563 658.44 152.728 657.836 154.252 657.836Z" fill="black"/>
<path d="M229.671 652.84V419.56" stroke="#CBCBCB" stroke-width="1.33333"/>
<path d="M214.171 670.142H217.179V659.759L213.906 660.415V658.738L217.161 658.082H219.001V670.142H222.009V671.691H214.171V670.142Z" fill="black"/>
<path d="M229.664 659.295C228.717 659.295 228.005 659.761 227.527 660.695C227.05 661.626 226.812 663.028 226.812 664.901C226.812 666.765 227.05 668.164 227.527 669.098C228.005 670.031 228.717 670.498 229.664 670.498C230.619 670.498 231.335 670.031 231.811 669.098C232.289 668.164 232.529 666.765 232.529 664.901C232.529 663.028 232.289 661.626 231.811 660.695C231.335 659.761 230.619 659.295 229.664 659.295ZM229.664 657.836C231.191 657.836 232.357 658.44 233.162 659.648C233.967 660.853 234.369 662.604 234.369 664.901C234.369 667.191 233.967 668.94 233.162 670.148C232.357 671.353 231.191 671.956 229.664 671.956C228.14 671.956 226.975 671.353 226.17 670.148C225.365 668.94 224.963 667.191 224.963 664.901C224.963 662.604 225.365 660.853 226.17 659.648C226.975 658.44 228.14 657.836 229.664 657.836Z" fill="black"/>
<path d="M241.541 659.295C240.594 659.295 239.881 659.761 239.403 660.695C238.926 661.626 238.688 663.028 238.688 664.901C238.688 666.765 238.926 668.164 239.403 669.098C239.881 670.031 240.594 670.498 241.541 670.498C242.495 670.498 243.211 670.031 243.687 669.098C244.166 668.164 244.405 666.765 244.405 664.901C244.405 663.028 244.166 661.626 243.687 660.695C243.211 659.761 242.495 659.295 241.541 659.295ZM241.541 657.836C243.067 657.836 244.233 658.44 245.038 659.648C245.843 660.853 246.245 662.604 246.245 664.901C246.245 667.191 245.843 668.94 245.038 670.148C244.233 671.353 243.067 671.956 241.541 671.956C240.016 671.956 238.851 671.353 238.046 670.148C237.241 668.94 236.839 667.191 236.839 664.901C236.839 662.604 237.241 660.853 238.046 659.648C238.851 658.44 240.016 657.836 241.541 657.836Z" fill="black"/>
<path d="M34.4291 652.84H50.6992V615.812H34.4291V652.84Z" fill="#008FD5" stroke="white" stroke-width="0.666667"/>
<path d="M50.6992 652.84H66.9693V504.726H50.6992V652.84Z" fill="#008FD5" stroke="white" stroke-width="0.666667"/>
<path d="M66.9694 652.84H83.2395V430.669H66.9694V652.84Z" fill="#008FD5" stroke="white" stroke-width="0.666667"/>
<path d="M83.2395 652.84H99.5096H83.2395Z" fill="#008FD5" stroke="white" stroke-width="0.666667"/>
<path d="M99.5096 652.84H115.78V615.812H99.5096V652.84Z" fill="#008FD5" stroke="white" stroke-width="0.666667"/>
<path d="M115.78 652.84H132.05V615.812H115.78V652.84Z" fill="#008FD5" stroke="white" stroke-width="0.666667"/>
<path d="M132.05 652.84H148.32V615.812H132.05V652.84Z" fill="#008FD5" stroke="white" stroke-width="0.666667"/>
<path d="M148.32 652.84H164.59V578.783H148.32V652.84Z" fill="#008FD5" stroke="white" stroke-width="0.666667"/>
<path d="M164.59 652.84H180.86V615.812H164.59V652.84Z" fill="#008FD5" stroke="white" stroke-width="0.666667"/>
<path d="M180.86 652.84H197.13V578.783H180.86V652.84Z" fill="#008FD5" stroke="white" stroke-width="0.666667"/>
<path d="M197.13 652.84H213.4H197.13Z" fill="#008FD5" stroke="white" stroke-width="0.666667"/>
<path d="M213.401 652.84H229.671H213.401Z" fill="#008FD5" stroke="white" stroke-width="0.666667"/>
<path d="M229.671 652.84H245.941H229.671Z" fill="#008FD5" stroke="white" stroke-width="0.666667"/>
<path d="M245.941 652.84H262.211H245.941Z" fill="#008FD5" stroke="white" stroke-width="0.666667"/>
<path d="M94.0724 652.84V419.56" stroke="#FF0000" stroke-width="5.33333"/>
<path d="M23.04 652.84V419.56" stroke="#F0F0F0" stroke-width="4" stroke-linecap="square"/>
<path d="M273.6 652.84V419.56" stroke="#F0F0F0" stroke-width="4" stroke-linecap="square"/>
<path d="M23.04 652.84H273.6" stroke="#F0F0F0" stroke-width="4" stroke-linecap="square"/>
<path d="M23.04 419.56H273.6" stroke="#F0F0F0" stroke-width="4" stroke-linecap="square"/>
<path d="M112.309 392.606V395.193C111.304 394.711 110.355 394.353 109.462 394.118C108.568 393.88 107.706 393.761 106.874 393.761C105.432 393.761 104.319 394.041 103.535 394.601C102.751 395.161 102.359 395.957 102.359 396.99C102.359 397.858 102.62 398.514 103.141 398.956C103.661 399.396 104.648 399.751 106.102 400.023L107.702 400.35C109.679 400.728 111.137 401.392 112.078 402.341C113.019 403.29 113.489 404.56 113.489 406.151C113.489 408.052 112.852 409.492 111.578 410.472C110.307 411.452 108.442 411.942 105.984 411.942C105.057 411.942 104.07 411.837 103.023 411.627C101.979 411.417 100.896 411.107 99.7765 410.695V407.965C100.852 408.567 101.906 409.022 102.939 409.33C103.972 409.635 104.987 409.788 105.984 409.788C107.496 409.788 108.664 409.491 109.487 408.897C110.31 408.301 110.722 407.451 110.722 406.348C110.722 405.388 110.426 404.636 109.835 404.093C109.245 403.549 108.276 403.142 106.929 402.87L105.312 402.555C103.335 402.163 101.904 401.547 101.02 400.707C100.138 399.867 99.6967 398.698 99.6967 397.2C99.6967 395.467 100.307 394.102 101.528 393.105C102.749 392.109 104.43 391.61 106.572 391.61C107.493 391.61 108.43 391.694 109.382 391.862C110.337 392.027 111.312 392.275 112.309 392.606Z" fill="black"/>
<path d="M124.202 404.172C122.25 404.172 120.898 404.395 120.144 404.84C119.391 405.285 119.015 406.047 119.015 407.125C119.015 407.982 119.297 408.662 119.863 409.166C120.429 409.667 121.196 409.918 122.165 409.918C123.506 409.918 124.581 409.443 125.39 408.494C126.199 407.545 126.604 406.284 126.604 404.71V404.172H124.202ZM129.019 403.173V411.56H126.604V409.33C126.052 410.22 125.365 410.878 124.542 411.304C123.719 411.73 122.712 411.942 121.522 411.942C120.018 411.942 118.821 411.52 117.931 410.674C117.043 409.828 116.6 408.697 116.6 407.28C116.6 405.628 117.153 404.382 118.259 403.542C119.367 402.702 121.019 402.282 123.215 402.282H126.604V402.043C126.604 400.931 126.239 400.072 125.508 399.464C124.777 398.857 123.751 398.553 122.429 398.553C121.589 398.553 120.77 398.654 119.972 398.855C119.177 399.057 118.413 399.359 117.679 399.762V397.528C118.561 397.186 119.418 396.932 120.249 396.764C121.081 396.593 121.89 396.507 122.677 396.507C124.805 396.507 126.394 397.059 127.444 398.162C128.494 399.263 129.019 400.933 129.019 403.173Z" fill="black"/>
<path d="M145.436 399.683C146.041 398.596 146.763 397.796 147.603 397.28C148.443 396.765 149.432 396.508 150.569 396.508C152.1 396.508 153.282 397.044 154.113 398.116C154.945 399.186 155.361 400.709 155.361 402.686V411.56H152.933V402.766C152.933 401.357 152.683 400.313 152.181 399.632C151.683 398.949 150.923 398.608 149.901 398.608C148.649 398.608 147.659 399.023 146.931 399.855C146.206 400.684 145.844 401.816 145.844 403.253V411.56H143.416V402.766C143.416 401.349 143.167 400.302 142.668 399.624C142.17 398.946 141.4 398.608 140.358 398.608C139.124 398.608 138.142 399.025 137.414 399.859C136.689 400.694 136.326 401.825 136.326 403.253V411.56H133.899V396.86H136.326V399.145C136.878 398.244 137.539 397.579 138.309 397.15C139.079 396.722 139.993 396.508 141.051 396.508C142.121 396.508 143.03 396.779 143.777 397.322C144.525 397.863 145.078 398.65 145.436 399.683Z" fill="black"/>
<path d="M162.511 409.355V417.15H160.083V396.86H162.511V399.09C163.02 398.217 163.662 397.569 164.434 397.146C165.21 396.72 166.135 396.507 167.211 396.507C168.997 396.507 170.447 397.216 171.562 398.633C172.679 400.049 173.238 401.913 173.238 404.223C173.238 406.533 172.679 408.398 171.562 409.817C170.447 411.234 168.997 411.942 167.211 411.942C166.135 411.942 165.21 411.73 164.434 411.304C163.662 410.878 163.02 410.229 162.511 409.355ZM170.73 404.223C170.73 402.448 170.365 401.055 169.634 400.044C168.903 399.033 167.899 398.528 166.623 398.528C165.343 398.528 164.338 399.033 163.607 400.044C162.876 401.055 162.511 402.448 162.511 404.223C162.511 405.998 162.876 407.391 163.607 408.402C164.338 409.413 165.343 409.918 166.623 409.918C167.899 409.918 168.903 409.413 169.634 408.402C170.365 407.391 170.73 405.998 170.73 404.223Z" fill="black"/>
<path d="M177.238 391.136H179.653V411.56H177.238V391.136Z" fill="black"/>
<path d="M197.281 403.605V404.786H186.176C186.283 406.449 186.784 407.716 187.68 408.587C188.576 409.457 189.825 409.893 191.426 409.893C192.353 409.893 193.252 409.779 194.123 409.553C194.993 409.326 195.859 408.984 196.718 408.528V410.813C195.85 411.179 194.961 411.459 194.051 411.653C193.141 411.846 192.219 411.942 191.283 411.942C188.937 411.942 187.079 411.261 185.71 409.897C184.341 408.531 183.656 406.683 183.656 404.353C183.656 401.948 184.306 400.04 185.605 398.628C186.904 397.214 188.657 396.507 190.863 396.507C192.84 396.507 194.404 397.144 195.555 398.418C196.706 399.69 197.281 401.419 197.281 403.605ZM194.866 402.896C194.849 401.577 194.48 400.524 193.757 399.737C193.035 398.948 192.079 398.553 190.889 398.553C189.542 398.553 188.464 398.934 187.655 399.695C186.845 400.457 186.379 401.529 186.256 402.912L194.866 402.896Z" fill="black"/>
<path d="M298 673H586V385H298V673Z" fill="#F0F0F0"/>
<path d="M321.04 652.84H571.6V419.56H321.04V652.84Z" fill="#F0F0F0"/>
<path d="M364.969 652.84V419.56" stroke="#CBCBCB" stroke-width="1.33333"/>
<path d="M364.964 659.295C364.017 659.295 363.304 659.761 362.826 660.695C362.349 661.626 362.111 663.028 362.111 664.901C362.111 666.765 362.349 668.164 362.826 669.098C363.304 670.031 364.017 670.498 364.964 670.498C365.918 670.498 366.634 670.031 367.11 669.098C367.589 668.164 367.828 666.765 367.828 664.901C367.828 663.028 367.589 661.626 367.11 660.695C366.634 659.761 365.918 659.295 364.964 659.295ZM364.964 657.836C366.49 657.836 367.656 658.44 368.461 659.648C369.266 660.853 369.668 662.604 369.668 664.901C369.668 667.191 369.266 668.94 368.461 670.148C367.656 671.353 366.49 671.956 364.964 671.956C363.439 671.956 362.274 671.353 361.469 670.148C360.664 668.94 360.262 667.191 360.262 664.901C360.262 662.604 360.664 660.853 361.469 659.648C362.274 658.44 363.439 657.836 364.964 657.836Z" fill="black"/>
<path d="M446.32 652.84V419.56" stroke="#CBCBCB" stroke-width="1.33333"/>
<path d="M436.459 658.081H443.686V659.633H438.145V662.967C438.411 662.875 438.677 662.807 438.944 662.763C439.212 662.718 439.48 662.696 439.749 662.696C441.267 662.696 442.47 663.112 443.357 663.944C444.245 664.776 444.69 665.903 444.69 667.324C444.69 668.789 444.234 669.927 443.322 670.74C442.41 671.551 441.124 671.956 439.466 671.956C438.894 671.956 438.312 671.907 437.719 671.81C437.128 671.713 436.516 671.567 435.884 671.373V669.521C436.431 669.818 436.995 670.04 437.579 670.186C438.162 670.331 438.778 670.404 439.428 670.404C440.48 670.404 441.312 670.128 441.925 669.576C442.539 669.024 442.846 668.273 442.846 667.324C442.846 666.377 442.539 665.628 441.925 665.076C441.312 664.521 440.48 664.244 439.428 664.244C438.936 664.244 438.445 664.299 437.955 664.408C437.467 664.517 436.968 664.687 436.459 664.918V658.081Z" fill="black"/>
<path d="M452.252 659.295C451.305 659.295 450.592 659.761 450.114 660.695C449.638 661.626 449.4 663.028 449.4 664.901C449.4 666.765 449.638 668.164 450.114 669.098C450.592 670.031 451.305 670.498 452.252 670.498C453.207 670.498 453.922 670.031 454.399 669.098C454.877 668.164 455.116 666.765 455.116 664.901C455.116 663.028 454.877 661.626 454.399 660.695C453.922 659.761 453.207 659.295 452.252 659.295ZM452.252 657.836C453.778 657.836 454.944 658.44 455.749 659.648C456.554 660.853 456.957 662.604 456.957 664.901C456.957 667.191 456.554 668.94 455.749 670.148C454.944 671.353 453.778 671.956 452.252 671.956C450.728 671.956 449.563 671.353 448.758 670.148C447.953 668.94 447.55 667.191 447.55 664.901C447.55 662.604 447.953 660.853 448.758 659.648C449.563 658.44 450.728 657.836 452.252 657.836Z" fill="black"/>
<path d="M527.671 652.84V419.56" stroke="#CBCBCB" stroke-width="1.33333"/>
<path d="M512.171 670.142H515.179V659.759L511.906 660.415V658.738L515.161 658.082H517.001V670.142H520.009V671.691H512.171V670.142Z" fill="black"/>
<path d="M527.664 659.295C526.717 659.295 526.005 659.761 525.526 660.695C525.05 661.626 524.812 663.028 524.812 664.901C524.812 666.765 525.05 668.164 525.526 669.098C526.005 670.031 526.717 670.498 527.664 670.498C528.619 670.498 529.335 670.031 529.811 669.098C530.289 668.164 530.529 666.765 530.529 664.901C530.529 663.028 530.289 661.626 529.811 660.695C529.335 659.761 528.619 659.295 527.664 659.295ZM527.664 657.836C529.191 657.836 530.356 658.44 531.161 659.648C531.966 660.853 532.369 662.604 532.369 664.901C532.369 667.191 531.966 668.94 531.161 670.148C530.356 671.353 529.191 671.956 527.664 671.956C526.14 671.956 524.975 671.353 524.17 670.148C523.365 668.94 522.963 667.191 522.963 664.901C522.963 662.604 523.365 660.853 524.17 659.648C524.975 658.44 526.14 657.836 527.664 657.836Z" fill="black"/>
<path d="M539.541 659.295C538.594 659.295 537.881 659.761 537.403 660.695C536.926 661.626 536.688 663.028 536.688 664.901C536.688 666.765 536.926 668.164 537.403 669.098C537.881 670.031 538.594 670.498 539.541 670.498C540.495 670.498 541.211 670.031 541.687 669.098C542.166 668.164 542.405 666.765 542.405 664.901C542.405 663.028 542.166 661.626 541.687 660.695C541.211 659.761 540.495 659.295 539.541 659.295ZM539.541 657.836C541.067 657.836 542.233 658.44 543.038 659.648C543.843 660.853 544.245 662.604 544.245 664.901C544.245 667.191 543.843 668.94 543.038 670.148C542.233 671.353 541.067 671.956 539.541 671.956C538.016 671.956 536.852 671.353 536.047 670.148C535.242 668.94 534.839 667.191 534.839 664.901C534.839 662.604 535.242 660.853 536.047 659.648C536.852 658.44 538.016 657.836 539.541 657.836Z" fill="black"/>
<path d="M332.429 652.84H348.699H332.429Z" fill="#008FD5" stroke="white" stroke-width="0.666667"/>
<path d="M348.699 652.84H364.969V430.669H348.699V652.84Z" fill="#008FD5" stroke="white" stroke-width="0.666667"/>
<path d="M364.969 652.84H381.239V462.407H364.969V652.84Z" fill="#008FD5" stroke="white" stroke-width="0.666667"/>
<path d="M381.24 652.84H397.51H381.24Z" fill="#008FD5" stroke="white" stroke-width="0.666667"/>
<path d="M397.51 652.84H413.78V557.624H397.51V652.84Z" fill="#008FD5" stroke="white" stroke-width="0.666667"/>
<path d="M413.78 652.84H430.05V621.101H413.78V652.84Z" fill="#008FD5" stroke="white" stroke-width="0.666667"/>
<path d="M430.05 652.84H446.32V621.101H430.05V652.84Z" fill="#008FD5" stroke="white" stroke-width="0.666667"/>
<path d="M446.32 652.84H462.59H446.32Z" fill="#008FD5" stroke="white" stroke-width="0.666667"/>
<path d="M462.59 652.84H478.86H462.59Z" fill="#008FD5" stroke="white" stroke-width="0.666667"/>
<path d="M478.86 652.84H495.13H478.86Z" fill="#008FD5" stroke="white" stroke-width="0.666667"/>
<path d="M495.13 652.84H511.4V621.101H495.13V652.84Z" fill="#008FD5" stroke="white" stroke-width="0.666667"/>
<path d="M511.401 652.84H527.671V621.101H511.401V652.84Z" fill="#008FD5" stroke="white" stroke-width="0.666667"/>
<path d="M527.671 652.84H543.941H527.671Z" fill="#008FD5" stroke="white" stroke-width="0.666667"/>
<path d="M543.941 652.84H560.211H543.941Z" fill="#008FD5" stroke="white" stroke-width="0.666667"/>
<path d="M392.072 652.84V419.56" stroke="#FF0000" stroke-width="5.33333"/>
<path d="M321.04 652.84V419.56" stroke="#F0F0F0" stroke-width="4" stroke-linecap="square"/>
<path d="M571.6 652.84V419.56" stroke="#F0F0F0" stroke-width="4" stroke-linecap="square"/>
<path d="M321.04 652.84H571.6" stroke="#F0F0F0" stroke-width="4" stroke-linecap="square"/>
<path d="M321.04 419.56H571.6" stroke="#F0F0F0" stroke-width="4" stroke-linecap="square"/>
<path d="M410.309 392.606V395.193C409.304 394.711 408.355 394.353 407.462 394.118C406.568 393.88 405.706 393.761 404.874 393.761C403.432 393.761 402.319 394.041 401.535 394.601C400.751 395.161 400.359 395.957 400.359 396.99C400.359 397.858 400.62 398.514 401.141 398.956C401.661 399.396 402.648 399.751 404.102 400.023L405.702 400.35C407.679 400.728 409.137 401.392 410.078 402.341C411.019 403.29 411.489 404.56 411.489 406.151C411.489 408.052 410.852 409.492 409.578 410.472C408.307 411.452 406.442 411.942 403.984 411.942C403.057 411.942 402.07 411.837 401.023 411.627C399.979 411.417 398.896 411.107 397.776 410.695V407.965C398.852 408.567 399.906 409.022 400.939 409.33C401.972 409.635 402.987 409.788 403.984 409.788C405.496 409.788 406.664 409.491 407.487 408.897C408.31 408.301 408.722 407.451 408.722 406.348C408.722 405.388 408.426 404.636 407.835 404.093C407.245 403.549 406.276 403.142 404.929 402.87L403.312 402.555C401.335 402.163 399.904 401.547 399.02 400.707C398.138 399.867 397.697 398.698 397.697 397.2C397.697 395.467 398.307 394.102 399.528 393.105C400.749 392.109 402.43 391.61 404.572 391.61C405.493 391.61 406.43 391.694 407.382 391.862C408.337 392.027 409.312 392.275 410.309 392.606Z" fill="black"/>
<path d="M422.202 404.172C420.25 404.172 418.898 404.395 418.144 404.84C417.391 405.285 417.015 406.047 417.015 407.125C417.015 407.982 417.297 408.662 417.863 409.166C418.429 409.667 419.196 409.918 420.165 409.918C421.506 409.918 422.581 409.443 423.39 408.494C424.199 407.545 424.604 406.284 424.604 404.71V404.172H422.202ZM427.019 403.173V411.56H424.604V409.33C424.052 410.22 423.365 410.878 422.542 411.304C421.719 411.73 420.712 411.942 419.522 411.942C418.018 411.942 416.821 411.52 415.931 410.674C415.043 409.828 414.6 408.697 414.6 407.28C414.6 405.628 415.153 404.382 416.259 403.542C417.367 402.702 419.019 402.282 421.215 402.282H424.604V402.043C424.604 400.931 424.239 400.072 423.508 399.464C422.777 398.857 421.751 398.553 420.429 398.553C419.589 398.553 418.77 398.654 417.972 398.855C417.177 399.057 416.413 399.359 415.679 399.762V397.528C416.561 397.186 417.418 396.932 418.249 396.764C419.081 396.593 419.89 396.507 420.677 396.507C422.805 396.507 424.394 397.059 425.444 398.162C426.494 399.263 427.019 400.933 427.019 403.173Z" fill="black"/>
<path d="M443.436 399.683C444.041 398.596 444.763 397.796 445.603 397.28C446.443 396.765 447.432 396.508 448.569 396.508C450.1 396.508 451.282 397.044 452.113 398.116C452.945 399.186 453.361 400.709 453.361 402.686V411.56H450.933V402.766C450.933 401.357 450.683 400.313 450.181 399.632C449.683 398.949 448.923 398.608 447.901 398.608C446.649 398.608 445.659 399.023 444.931 399.855C444.206 400.684 443.844 401.816 443.844 403.253V411.56H441.416V402.766C441.416 401.349 441.167 400.302 440.668 399.624C440.17 398.946 439.4 398.608 438.358 398.608C437.124 398.608 436.142 399.025 435.414 399.859C434.689 400.694 434.326 401.825 434.326 403.253V411.56H431.899V396.86H434.326V399.145C434.878 398.244 435.539 397.579 436.309 397.15C437.079 396.722 437.993 396.508 439.051 396.508C440.121 396.508 441.03 396.779 441.777 397.322C442.525 397.863 443.078 398.65 443.436 399.683Z" fill="black"/>
<path d="M460.511 409.355V417.15H458.083V396.86H460.511V399.09C461.02 398.217 461.662 397.569 462.434 397.146C463.21 396.72 464.135 396.507 465.211 396.507C466.997 396.507 468.447 397.216 469.562 398.633C470.679 400.049 471.238 401.913 471.238 404.223C471.238 406.533 470.679 408.398 469.562 409.817C468.447 411.234 466.997 411.942 465.211 411.942C464.135 411.942 463.21 411.73 462.434 411.304C461.662 410.878 461.02 410.229 460.511 409.355ZM468.73 404.223C468.73 402.448 468.365 401.055 467.634 400.044C466.903 399.033 465.899 398.528 464.623 398.528C463.343 398.528 462.338 399.033 461.607 400.044C460.876 401.055 460.511 402.448 460.511 404.223C460.511 405.998 460.876 407.391 461.607 408.402C462.338 409.413 463.343 409.918 464.623 409.918C465.899 409.918 466.903 409.413 467.634 408.402C468.365 407.391 468.73 405.998 468.73 404.223Z" fill="black"/>
<path d="M475.238 391.136H477.653V411.56H475.238V391.136Z" fill="black"/>
<path d="M495.281 403.605V404.786H484.176C484.283 406.449 484.784 407.716 485.68 408.587C486.576 409.457 487.825 409.893 489.426 409.893C490.353 409.893 491.252 409.779 492.123 409.553C492.993 409.326 493.859 408.984 494.718 408.528V410.813C493.85 411.179 492.961 411.459 492.051 411.653C491.141 411.846 490.219 411.942 489.283 411.942C486.937 411.942 485.079 411.261 483.71 409.897C482.341 408.531 481.656 406.683 481.656 404.353C481.656 401.948 482.306 400.04 483.605 398.628C484.904 397.214 486.657 396.507 488.863 396.507C490.84 396.507 492.404 397.144 493.555 398.418C494.706 399.69 495.281 401.419 495.281 403.605ZM492.866 402.896C492.849 401.577 492.48 400.524 491.757 399.737C491.035 398.948 490.079 398.553 488.889 398.553C487.542 398.553 486.464 398.934 485.655 399.695C484.845 400.457 484.379 401.529 484.256 402.912L492.866 402.896Z" fill="black"/>
<path d="M596 673H884V385H596V673Z" fill="#F0F0F0"/>
<path d="M619.04 652.84H869.6V419.56H619.04V652.84Z" fill="#F0F0F0"/>
<path d="M662.969 652.84V419.56" stroke="#CBCBCB" stroke-width="1.33333"/>
<path d="M662.964 659.295C662.017 659.295 661.304 659.761 660.826 660.695C660.349 661.626 660.111 663.028 660.111 664.901C660.111 666.765 660.349 668.164 660.826 669.098C661.304 670.031 662.017 670.498 662.964 670.498C663.918 670.498 664.634 670.031 665.11 669.098C665.589 668.164 665.828 666.765 665.828 664.901C665.828 663.028 665.589 661.626 665.11 660.695C664.634 659.761 663.918 659.295 662.964 659.295ZM662.964 657.836C664.49 657.836 665.656 658.44 666.461 659.648C667.266 660.853 667.668 662.604 667.668 664.901C667.668 667.191 667.266 668.94 666.461 670.148C665.656 671.353 664.49 671.956 662.964 671.956C661.439 671.956 660.274 671.353 659.469 670.148C658.664 668.94 658.262 667.191 658.262 664.901C658.262 662.604 658.664 660.853 659.469 659.648C660.274 658.44 661.439 657.836 662.964 657.836Z" fill="black"/>
<path d="M744.32 652.84V419.56" stroke="#CBCBCB" stroke-width="1.33333"/>
<path d="M734.459 658.081H741.686V659.633H736.145V662.967C736.411 662.875 736.677 662.807 736.944 662.763C737.212 662.718 737.48 662.696 737.749 662.696C739.267 662.696 740.47 663.112 741.357 663.944C742.245 664.776 742.69 665.903 742.69 667.324C742.69 668.789 742.234 669.927 741.322 670.74C740.41 671.551 739.124 671.956 737.466 671.956C736.894 671.956 736.312 671.907 735.719 671.81C735.128 671.713 734.516 671.567 733.884 671.373V669.521C734.431 669.818 734.995 670.04 735.579 670.186C736.162 670.331 736.778 670.404 737.428 670.404C738.48 670.404 739.312 670.128 739.925 669.576C740.539 669.024 740.846 668.273 740.846 667.324C740.846 666.377 740.539 665.628 739.925 665.076C739.312 664.521 738.48 664.244 737.428 664.244C736.936 664.244 736.445 664.299 735.955 664.408C735.467 664.517 734.968 664.687 734.459 664.918V658.081Z" fill="black"/>
<path d="M750.252 659.295C749.305 659.295 748.593 659.761 748.114 660.695C747.638 661.626 747.4 663.028 747.4 664.901C747.4 666.765 747.638 668.164 748.114 669.098C748.593 670.031 749.305 670.498 750.252 670.498C751.207 670.498 751.922 670.031 752.399 669.098C752.877 668.164 753.116 666.765 753.116 664.901C753.116 663.028 752.877 661.626 752.399 660.695C751.922 659.761 751.207 659.295 750.252 659.295ZM750.252 657.836C751.779 657.836 752.944 658.44 753.749 659.648C754.554 660.853 754.957 662.604 754.957 664.901C754.957 667.191 754.554 668.94 753.749 670.148C752.944 671.353 751.779 671.956 750.252 671.956C748.728 671.956 747.563 671.353 746.758 670.148C745.953 668.94 745.55 667.191 745.55 664.901C745.55 662.604 745.953 660.853 746.758 659.648C747.563 658.44 748.728 657.836 750.252 657.836Z" fill="black"/>
<path d="M825.671 652.84V419.56" stroke="#CBCBCB" stroke-width="1.33333"/>
<path d="M810.171 670.142H813.179V659.759L809.906 660.415V658.738L813.161 658.082H815.001V670.142H818.009V671.691H810.171V670.142Z" fill="black"/>
<path d="M825.664 659.295C824.717 659.295 824.005 659.761 823.527 660.695C823.05 661.626 822.812 663.028 822.812 664.901C822.812 666.765 823.05 668.164 823.527 669.098C824.005 670.031 824.717 670.498 825.664 670.498C826.619 670.498 827.335 670.031 827.811 669.098C828.289 668.164 828.529 666.765 828.529 664.901C828.529 663.028 828.289 661.626 827.811 660.695C827.335 659.761 826.619 659.295 825.664 659.295ZM825.664 657.836C827.191 657.836 828.357 658.44 829.162 659.648C829.967 660.853 830.369 662.604 830.369 664.901C830.369 667.191 829.967 668.94 829.162 670.148C828.357 671.353 827.191 671.956 825.664 671.956C824.14 671.956 822.975 671.353 822.17 670.148C821.365 668.94 820.963 667.191 820.963 664.901C820.963 662.604 821.365 660.853 822.17 659.648C822.975 658.44 824.14 657.836 825.664 657.836Z" fill="black"/>
<path d="M837.541 659.295C836.594 659.295 835.881 659.761 835.403 660.695C834.926 661.626 834.688 663.028 834.688 664.901C834.688 666.765 834.926 668.164 835.403 669.098C835.881 670.031 836.594 670.498 837.541 670.498C838.496 670.498 839.211 670.031 839.687 669.098C840.166 668.164 840.405 666.765 840.405 664.901C840.405 663.028 840.166 661.626 839.687 660.695C839.211 659.761 838.496 659.295 837.541 659.295ZM837.541 657.836C839.067 657.836 840.233 658.44 841.038 659.648C841.843 660.853 842.245 662.604 842.245 664.901C842.245 667.191 841.843 668.94 841.038 670.148C840.233 671.353 839.067 671.956 837.541 671.956C836.016 671.956 834.852 671.353 834.047 670.148C833.242 668.94 832.839 667.191 832.839 664.901C832.839 662.604 833.242 660.853 834.047 659.648C834.852 658.44 836.016 657.836 837.541 657.836Z" fill="black"/>
<path d="M630.429 652.84H646.699H630.429Z" fill="#008FD5" stroke="white" stroke-width="0.666667"/>
<path d="M646.699 652.84H662.969V480.04H646.699V652.84Z" fill="#008FD5" stroke="white" stroke-width="0.666667"/>
<path d="M662.969 652.84H679.239V430.669H662.969V652.84Z" fill="#008FD5" stroke="white" stroke-width="0.666667"/>
<path d="M679.239 652.84H695.51V628.154H679.239V652.84Z" fill="#008FD5" stroke="white" stroke-width="0.666667"/>
<path d="M695.51 652.84H711.78V628.154H695.51V652.84Z" fill="#008FD5" stroke="white" stroke-width="0.666667"/>
<path d="M711.78 652.84H728.05H711.78Z" fill="#008FD5" stroke="white" stroke-width="0.666667"/>
<path d="M728.05 652.84H744.32H728.05Z" fill="#008FD5" stroke="white" stroke-width="0.666667"/>
<path d="M744.32 652.84H760.59V603.469H744.32V652.84Z" fill="#008FD5" stroke="white" stroke-width="0.666667"/>
<path d="M760.59 652.84H776.86H760.59Z" fill="#008FD5" stroke="white" stroke-width="0.666667"/>
<path d="M776.86 652.84H793.13H776.86Z" fill="#008FD5" stroke="white" stroke-width="0.666667"/>
<path d="M793.13 652.84H809.4H793.13Z" fill="#008FD5" stroke="white" stroke-width="0.666667"/>
<path d="M809.401 652.84H825.671H809.401Z" fill="#008FD5" stroke="white" stroke-width="0.666667"/>
<path d="M825.671 652.84H841.941H825.671Z" fill="#008FD5" stroke="white" stroke-width="0.666667"/>
<path d="M841.941 652.84H858.211H841.941Z" fill="#008FD5" stroke="white" stroke-width="0.666667"/>
<path d="M690.072 652.84V419.56" stroke="#FF0000" stroke-width="5.33333"/>
<path d="M619.04 652.84V419.56" stroke="#F0F0F0" stroke-width="4" stroke-linecap="square"/>
<path d="M869.6 652.84V419.56" stroke="#F0F0F0" stroke-width="4" stroke-linecap="square"/>
<path d="M619.04 652.84H869.6" stroke="#F0F0F0" stroke-width="4" stroke-linecap="square"/>
<path d="M619.04 419.56H869.6" stroke="#F0F0F0" stroke-width="4" stroke-linecap="square"/>
<path d="M708.309 392.606V395.193C707.304 394.711 706.355 394.353 705.462 394.118C704.568 393.88 703.706 393.761 702.874 393.761C701.432 393.761 700.319 394.041 699.535 394.601C698.751 395.161 698.359 395.957 698.359 396.99C698.359 397.858 698.62 398.514 699.141 398.956C699.661 399.396 700.648 399.751 702.102 400.023L703.702 400.35C705.679 400.728 707.137 401.392 708.078 402.341C709.019 403.29 709.489 404.56 709.489 406.151C709.489 408.052 708.852 409.492 707.578 410.472C706.307 411.452 704.442 411.942 701.984 411.942C701.057 411.942 700.07 411.837 699.023 411.627C697.979 411.417 696.896 411.107 695.776 410.695V407.965C696.852 408.567 697.906 409.022 698.939 409.33C699.972 409.635 700.987 409.788 701.984 409.788C703.496 409.788 704.664 409.491 705.487 408.897C706.31 408.301 706.722 407.451 706.722 406.348C706.722 405.388 706.426 404.636 705.835 404.093C705.245 403.549 704.276 403.142 702.929 402.87L701.312 402.555C699.335 402.163 697.904 401.547 697.02 400.707C696.138 399.867 695.697 398.698 695.697 397.2C695.697 395.467 696.307 394.102 697.528 393.105C698.749 392.109 700.43 391.61 702.572 391.61C703.493 391.61 704.43 391.694 705.382 391.862C706.337 392.027 707.312 392.275 708.309 392.606Z" fill="black"/>
<path d="M720.201 404.172C718.25 404.172 716.897 404.395 716.144 404.84C715.391 405.285 715.014 406.047 715.014 407.125C715.014 407.982 715.297 408.662 715.863 409.166C716.428 409.667 717.196 409.918 718.164 409.918C719.506 409.918 720.581 409.443 721.39 408.494C722.199 407.545 722.604 406.284 722.604 404.71V404.172H720.201ZM725.019 403.173V411.56H722.604V409.33C722.052 410.22 721.365 410.878 720.542 411.304C719.718 411.73 718.712 411.942 717.522 411.942C716.018 411.942 714.821 411.52 713.931 410.674C713.043 409.828 712.599 408.697 712.599 407.28C712.599 405.628 713.152 404.382 714.258 403.542C715.367 402.702 717.019 402.282 719.214 402.282H722.604V402.043C722.604 400.931 722.238 400.072 721.508 399.464C720.777 398.857 719.751 398.553 718.429 398.553C717.589 398.553 716.77 398.654 715.972 398.855C715.177 399.057 714.412 399.359 713.679 399.762V397.528C714.561 397.186 715.418 396.932 716.249 396.764C717.081 396.593 717.89 396.507 718.677 396.507C720.805 396.507 722.394 397.059 723.444 398.162C724.494 399.263 725.019 400.933 725.019 403.173Z" fill="black"/>
<path d="M741.436 399.683C742.041 398.596 742.763 397.796 743.603 397.28C744.443 396.765 745.432 396.508 746.569 396.508C748.1 396.508 749.282 397.044 750.113 398.116C750.945 399.186 751.361 400.709 751.361 402.686V411.56H748.933V402.766C748.933 401.357 748.683 400.313 748.181 399.632C747.683 398.949 746.923 398.608 745.901 398.608C744.649 398.608 743.659 399.023 742.931 399.855C742.206 400.684 741.844 401.816 741.844 403.253V411.56H739.416V402.766C739.416 401.349 739.167 400.302 738.668 399.624C738.17 398.946 737.4 398.608 736.358 398.608C735.124 398.608 734.142 399.025 733.414 399.859C732.689 400.694 732.326 401.825 732.326 403.253V411.56H729.899V396.86H732.326V399.145C732.878 398.244 733.539 397.579 734.309 397.15C735.079 396.722 735.993 396.508 737.051 396.508C738.121 396.508 739.03 396.779 739.777 397.322C740.525 397.863 741.078 398.65 741.436 399.683Z" fill="black"/>
<path d="M758.511 409.355V417.15H756.083V396.86H758.511V399.09C759.02 398.217 759.662 397.569 760.434 397.146C761.21 396.72 762.135 396.507 763.211 396.507C764.997 396.507 766.447 397.216 767.562 398.633C768.679 400.049 769.238 401.913 769.238 404.223C769.238 406.533 768.679 408.398 767.562 409.817C766.447 411.234 764.997 411.942 763.211 411.942C762.135 411.942 761.21 411.73 760.434 411.304C759.662 410.878 759.02 410.229 758.511 409.355ZM766.73 404.223C766.73 402.448 766.365 401.055 765.634 400.044C764.903 399.033 763.899 398.528 762.623 398.528C761.343 398.528 760.338 399.033 759.607 400.044C758.876 401.055 758.511 402.448 758.511 404.223C758.511 405.998 758.876 407.391 759.607 408.402C760.338 409.413 761.343 409.918 762.623 409.918C763.899 409.918 764.903 409.413 765.634 408.402C766.365 407.391 766.73 405.998 766.73 404.223Z" fill="black"/>
<path d="M773.238 391.136H775.653V411.56H773.238V391.136Z" fill="black"/>
<path d="M793.281 403.605V404.786H782.176C782.283 406.449 782.784 407.716 783.68 408.587C784.576 409.457 785.825 409.893 787.426 409.893C788.353 409.893 789.252 409.779 790.123 409.553C790.993 409.326 791.859 408.984 792.718 408.528V410.813C791.85 411.179 790.961 411.459 790.051 411.653C789.141 411.846 788.219 411.942 787.283 411.942C784.937 411.942 783.079 411.261 781.71 409.897C780.341 408.531 779.656 406.683 779.656 404.353C779.656 401.948 780.306 400.04 781.605 398.628C782.904 397.214 784.657 396.507 786.863 396.507C788.84 396.507 790.404 397.144 791.555 398.418C792.706 399.69 793.281 401.419 793.281 403.605ZM790.866 402.896C790.849 401.577 790.48 400.524 789.757 399.737C789.035 398.948 788.079 398.553 786.889 398.553C785.542 398.553 784.464 398.934 783.655 399.695C782.845 400.457 782.379 401.529 782.256 402.912L790.866 402.896Z" fill="black"/>
<path d="M894 673H1182V385H894V673Z" fill="#F0F0F0"/>
<path d="M917.04 652.84H1167.6V419.56H917.04V652.84Z" fill="#F0F0F0"/>
<path d="M960.969 652.84V419.56" stroke="#CBCBCB" stroke-width="1.33333"/>
<path d="M960.964 659.295C960.017 659.295 959.304 659.761 958.826 660.695C958.349 661.626 958.111 663.028 958.111 664.901C958.111 666.765 958.349 668.164 958.826 669.098C959.304 670.031 960.017 670.498 960.964 670.498C961.918 670.498 962.634 670.031 963.11 669.098C963.589 668.164 963.828 666.765 963.828 664.901C963.828 663.028 963.589 661.626 963.11 660.695C962.634 659.761 961.918 659.295 960.964 659.295ZM960.964 657.836C962.49 657.836 963.656 658.44 964.461 659.648C965.266 660.853 965.668 662.604 965.668 664.901C965.668 667.191 965.266 668.94 964.461 670.148C963.656 671.353 962.49 671.956 960.964 671.956C959.439 671.956 958.274 671.353 957.469 670.148C956.664 668.94 956.262 667.191 956.262 664.901C956.262 662.604 956.664 660.853 957.469 659.648C958.274 658.44 959.439 657.836 960.964 657.836Z" fill="black"/>
<path d="M1042.32 652.84V419.56" stroke="#CBCBCB" stroke-width="1.33333"/>
<path d="M1032.46 658.081H1039.69V659.633H1034.14V662.967C1034.41 662.875 1034.68 662.807 1034.94 662.763C1035.21 662.718 1035.48 662.696 1035.75 662.696C1037.27 662.696 1038.47 663.112 1039.36 663.944C1040.25 664.776 1040.69 665.903 1040.69 667.324C1040.69 668.789 1040.23 669.927 1039.32 670.74C1038.41 671.551 1037.12 671.956 1035.47 671.956C1034.89 671.956 1034.31 671.907 1033.72 671.81C1033.13 671.713 1032.52 671.567 1031.88 671.373V669.521C1032.43 669.818 1033 670.04 1033.58 670.186C1034.16 670.331 1034.78 670.404 1035.43 670.404C1036.48 670.404 1037.31 670.128 1037.92 669.576C1038.54 669.024 1038.85 668.273 1038.85 667.324C1038.85 666.377 1038.54 665.628 1037.92 665.076C1037.31 664.521 1036.48 664.244 1035.43 664.244C1034.94 664.244 1034.44 664.299 1033.95 664.408C1033.47 664.517 1032.97 664.687 1032.46 664.918V658.081Z" fill="black"/>
<path d="M1048.25 659.295C1047.31 659.295 1046.59 659.761 1046.11 660.695C1045.64 661.626 1045.4 663.028 1045.4 664.901C1045.4 666.765 1045.64 668.164 1046.11 669.098C1046.59 670.031 1047.31 670.498 1048.25 670.498C1049.21 670.498 1049.92 670.031 1050.4 669.098C1050.88 668.164 1051.12 666.765 1051.12 664.901C1051.12 663.028 1050.88 661.626 1050.4 660.695C1049.92 659.761 1049.21 659.295 1048.25 659.295ZM1048.25 657.836C1049.78 657.836 1050.94 658.44 1051.75 659.648C1052.55 660.853 1052.96 662.604 1052.96 664.901C1052.96 667.191 1052.55 668.94 1051.75 670.148C1050.94 671.353 1049.78 671.956 1048.25 671.956C1046.73 671.956 1045.56 671.353 1044.76 670.148C1043.95 668.94 1043.55 667.191 1043.55 664.901C1043.55 662.604 1043.95 660.853 1044.76 659.648C1045.56 658.44 1046.73 657.836 1048.25 657.836Z" fill="black"/>
<path d="M1123.67 652.84V419.56" stroke="#CBCBCB" stroke-width="1.33333"/>
<path d="M1108.17 670.142H1111.18V659.759L1107.91 660.415V658.738L1111.16 658.082H1113V670.142H1116.01V671.691H1108.17V670.142Z" fill="black"/>
<path d="M1123.66 659.295C1122.72 659.295 1122 659.761 1121.53 660.695C1121.05 661.626 1120.81 663.028 1120.81 664.901C1120.81 666.765 1121.05 668.164 1121.53 669.098C1122 670.031 1122.72 670.498 1123.66 670.498C1124.62 670.498 1125.33 670.031 1125.81 669.098C1126.29 668.164 1126.53 666.765 1126.53 664.901C1126.53 663.028 1126.29 661.626 1125.81 660.695C1125.33 659.761 1124.62 659.295 1123.66 659.295ZM1123.66 657.836C1125.19 657.836 1126.36 658.44 1127.16 659.648C1127.97 660.853 1128.37 662.604 1128.37 664.901C1128.37 667.191 1127.97 668.94 1127.16 670.148C1126.36 671.353 1125.19 671.956 1123.66 671.956C1122.14 671.956 1120.98 671.353 1120.17 670.148C1119.37 668.94 1118.96 667.191 1118.96 664.901C1118.96 662.604 1119.37 660.853 1120.17 659.648C1120.98 658.44 1122.14 657.836 1123.66 657.836Z" fill="black"/>
<path d="M1135.54 659.295C1134.59 659.295 1133.88 659.761 1133.4 660.695C1132.93 661.626 1132.69 663.028 1132.69 664.901C1132.69 666.765 1132.93 668.164 1133.4 669.098C1133.88 670.031 1134.59 670.498 1135.54 670.498C1136.5 670.498 1137.21 670.031 1137.69 669.098C1138.17 668.164 1138.4 666.765 1138.4 664.901C1138.4 663.028 1138.17 661.626 1137.69 660.695C1137.21 659.761 1136.5 659.295 1135.54 659.295ZM1135.54 657.836C1137.07 657.836 1138.23 658.44 1139.04 659.648C1139.84 660.853 1140.25 662.604 1140.25 664.901C1140.25 667.191 1139.84 668.94 1139.04 670.148C1138.23 671.353 1137.07 671.956 1135.54 671.956C1134.02 671.956 1132.85 671.353 1132.05 670.148C1131.24 668.94 1130.84 667.191 1130.84 664.901C1130.84 662.604 1131.24 660.853 1132.05 659.648C1132.85 658.44 1134.02 657.836 1135.54 657.836Z" fill="black"/>
<path d="M928.429 652.84H944.699H928.429Z" fill="#008FD5" stroke="white" stroke-width="0.666667"/>
<path d="M944.699 652.84H960.969V430.669H944.699V652.84Z" fill="#008FD5" stroke="white" stroke-width="0.666667"/>
<path d="M960.969 652.84H977.239V462.407H960.969V652.84Z" fill="#008FD5" stroke="white" stroke-width="0.666667"/>
<path d="M977.239 652.84H993.51V589.363H977.239V652.84Z" fill="#008FD5" stroke="white" stroke-width="0.666667"/>
<path d="M993.51 652.84H1009.78V621.101H993.51V652.84Z" fill="#008FD5" stroke="white" stroke-width="0.666667"/>
<path d="M1009.78 652.84H1026.05V557.624H1009.78V652.84Z" fill="#008FD5" stroke="white" stroke-width="0.666667"/>
<path d="M1026.05 652.84H1042.32H1026.05Z" fill="#008FD5" stroke="white" stroke-width="0.666667"/>
<path d="M1042.32 652.84H1058.59H1042.32Z" fill="#008FD5" stroke="white" stroke-width="0.666667"/>
<path d="M1058.59 652.84H1074.86H1058.59Z" fill="#008FD5" stroke="white" stroke-width="0.666667"/>
<path d="M1074.86 652.84H1091.13H1074.86Z" fill="#008FD5" stroke="white" stroke-width="0.666667"/>
<path d="M1091.13 652.84H1107.4H1091.13Z" fill="#008FD5" stroke="white" stroke-width="0.666667"/>
<path d="M1107.4 652.84H1123.67H1107.4Z" fill="#008FD5" stroke="white" stroke-width="0.666667"/>
<path d="M1123.67 652.84H1139.94H1123.67Z" fill="#008FD5" stroke="white" stroke-width="0.666667"/>
<path d="M1139.94 652.84H1156.21H1139.94Z" fill="#008FD5" stroke="white" stroke-width="0.666667"/>
<path d="M988.072 652.84V419.56" stroke="#FF0000" stroke-width="5.33333"/>
<path d="M917.04 652.84V419.56" stroke="#F0F0F0" stroke-width="4" stroke-linecap="square"/>
<path d="M1167.6 652.84V419.56" stroke="#F0F0F0" stroke-width="4" stroke-linecap="square"/>
<path d="M917.04 652.84H1167.6" stroke="#F0F0F0" stroke-width="4" stroke-linecap="square"/>
<path d="M917.04 419.56H1167.6" stroke="#F0F0F0" stroke-width="4" stroke-linecap="square"/>
<path d="M1006.31 392.606V395.193C1005.3 394.711 1004.35 394.353 1003.46 394.118C1002.57 393.88 1001.71 393.761 1000.87 393.761C999.432 393.761 998.319 394.041 997.535 394.601C996.751 395.161 996.359 395.957 996.359 396.99C996.359 397.858 996.62 398.514 997.141 398.956C997.661 399.396 998.648 399.751 1000.1 400.023L1001.7 400.35C1003.68 400.728 1005.14 401.392 1006.08 402.341C1007.02 403.29 1007.49 404.56 1007.49 406.151C1007.49 408.052 1006.85 409.492 1005.58 410.472C1004.31 411.452 1002.44 411.942 999.984 411.942C999.057 411.942 998.07 411.837 997.023 411.627C995.979 411.417 994.896 411.107 993.776 410.695V407.965C994.852 408.567 995.906 409.022 996.939 409.33C997.972 409.635 998.987 409.788 999.984 409.788C1001.5 409.788 1002.66 409.491 1003.49 408.897C1004.31 408.301 1004.72 407.451 1004.72 406.348C1004.72 405.388 1004.43 404.636 1003.84 404.093C1003.24 403.549 1002.28 403.142 1000.93 402.87L999.312 402.555C997.335 402.163 995.904 401.547 995.02 400.707C994.138 399.867 993.697 398.698 993.697 397.2C993.697 395.467 994.307 394.102 995.528 393.105C996.749 392.109 998.43 391.61 1000.57 391.61C1001.49 391.61 1002.43 391.694 1003.38 391.862C1004.34 392.027 1005.31 392.275 1006.31 392.606Z" fill="black"/>
<path d="M1018.2 404.172C1016.25 404.172 1014.9 404.395 1014.14 404.84C1013.39 405.285 1013.01 406.047 1013.01 407.125C1013.01 407.982 1013.3 408.662 1013.86 409.166C1014.43 409.667 1015.2 409.918 1016.16 409.918C1017.51 409.918 1018.58 409.443 1019.39 408.494C1020.2 407.545 1020.6 406.284 1020.6 404.71V404.172H1018.2ZM1023.02 403.173V411.56H1020.6V409.33C1020.05 410.22 1019.36 410.878 1018.54 411.304C1017.72 411.73 1016.71 411.942 1015.52 411.942C1014.02 411.942 1012.82 411.52 1011.93 410.674C1011.04 409.828 1010.6 408.697 1010.6 407.28C1010.6 405.628 1011.15 404.382 1012.26 403.542C1013.37 402.702 1015.02 402.282 1017.21 402.282H1020.6V402.043C1020.6 400.931 1020.24 400.072 1019.51 399.464C1018.78 398.857 1017.75 398.553 1016.43 398.553C1015.59 398.553 1014.77 398.654 1013.97 398.855C1013.18 399.057 1012.41 399.359 1011.68 399.762V397.528C1012.56 397.186 1013.42 396.932 1014.25 396.764C1015.08 396.593 1015.89 396.507 1016.68 396.507C1018.8 396.507 1020.39 397.059 1021.44 398.162C1022.49 399.263 1023.02 400.933 1023.02 403.173Z" fill="black"/>
<path d="M1039.44 399.683C1040.04 398.596 1040.76 397.796 1041.6 397.28C1042.44 396.765 1043.43 396.508 1044.57 396.508C1046.1 396.508 1047.28 397.044 1048.11 398.116C1048.94 399.186 1049.36 400.709 1049.36 402.686V411.56H1046.93V402.766C1046.93 401.357 1046.68 400.313 1046.18 399.632C1045.68 398.949 1044.92 398.608 1043.9 398.608C1042.65 398.608 1041.66 399.023 1040.93 399.855C1040.21 400.684 1039.84 401.816 1039.84 403.253V411.56H1037.42V402.766C1037.42 401.349 1037.17 400.302 1036.67 399.624C1036.17 398.946 1035.4 398.608 1034.36 398.608C1033.12 398.608 1032.14 399.025 1031.41 399.859C1030.69 400.694 1030.33 401.825 1030.33 403.253V411.56H1027.9V396.86H1030.33V399.145C1030.88 398.244 1031.54 397.579 1032.31 397.15C1033.08 396.722 1033.99 396.508 1035.05 396.508C1036.12 396.508 1037.03 396.779 1037.78 397.322C1038.52 397.863 1039.08 398.65 1039.44 399.683Z" fill="black"/>
<path d="M1056.51 409.355V417.15H1054.08V396.86H1056.51V399.09C1057.02 398.217 1057.66 397.569 1058.43 397.146C1059.21 396.72 1060.14 396.507 1061.21 396.507C1063 396.507 1064.45 397.216 1065.56 398.633C1066.68 400.049 1067.24 401.913 1067.24 404.223C1067.24 406.533 1066.68 408.398 1065.56 409.817C1064.45 411.234 1063 411.942 1061.21 411.942C1060.14 411.942 1059.21 411.73 1058.43 411.304C1057.66 410.878 1057.02 410.229 1056.51 409.355ZM1064.73 404.223C1064.73 402.448 1064.36 401.055 1063.63 400.044C1062.9 399.033 1061.9 398.528 1060.62 398.528C1059.34 398.528 1058.34 399.033 1057.61 400.044C1056.88 401.055 1056.51 402.448 1056.51 404.223C1056.51 405.998 1056.88 407.391 1057.61 408.402C1058.34 409.413 1059.34 409.918 1060.62 409.918C1061.9 409.918 1062.9 409.413 1063.63 408.402C1064.36 407.391 1064.73 405.998 1064.73 404.223Z" fill="black"/>
<path d="M1071.24 391.136H1073.65V411.56H1071.24V391.136Z" fill="black"/>
<path d="M1091.28 403.605V404.786H1080.18C1080.28 406.449 1080.78 407.716 1081.68 408.587C1082.58 409.457 1083.82 409.893 1085.43 409.893C1086.35 409.893 1087.25 409.779 1088.12 409.553C1088.99 409.326 1089.86 408.984 1090.72 408.528V410.813C1089.85 411.179 1088.96 411.459 1088.05 411.653C1087.14 411.846 1086.22 411.942 1085.28 411.942C1082.94 411.942 1081.08 411.261 1079.71 409.897C1078.34 408.531 1077.66 406.683 1077.66 404.353C1077.66 401.948 1078.31 400.04 1079.6 398.628C1080.9 397.214 1082.66 396.507 1084.86 396.507C1086.84 396.507 1088.4 397.144 1089.55 398.418C1090.71 399.69 1091.28 401.419 1091.28 403.605ZM1088.87 402.896C1088.85 401.577 1088.48 400.524 1087.76 399.737C1087.03 398.948 1086.08 398.553 1084.89 398.553C1083.54 398.553 1082.46 398.934 1081.65 399.695C1080.85 400.457 1080.38 401.529 1080.26 402.912L1088.87 402.896Z" fill="black"/>
<path d="M1192 673H1480V385H1192V673Z" fill="#F0F0F0"/>
<path d="M1215.04 652.84H1465.6V419.56H1215.04V652.84Z" fill="#F0F0F0"/>
<path d="M1258.97 652.84V419.56" stroke="#CBCBCB" stroke-width="1.33333"/>
<path d="M1258.96 659.295C1258.02 659.295 1257.3 659.761 1256.83 660.695C1256.35 661.626 1256.11 663.028 1256.11 664.901C1256.11 666.765 1256.35 668.164 1256.83 669.098C1257.3 670.031 1258.02 670.498 1258.96 670.498C1259.92 670.498 1260.63 670.031 1261.11 669.098C1261.59 668.164 1261.83 666.765 1261.83 664.901C1261.83 663.028 1261.59 661.626 1261.11 660.695C1260.63 659.761 1259.92 659.295 1258.96 659.295ZM1258.96 657.836C1260.49 657.836 1261.66 658.44 1262.46 659.648C1263.27 660.853 1263.67 662.604 1263.67 664.901C1263.67 667.191 1263.27 668.94 1262.46 670.148C1261.66 671.353 1260.49 671.956 1258.96 671.956C1257.44 671.956 1256.27 671.353 1255.47 670.148C1254.66 668.94 1254.26 667.191 1254.26 664.901C1254.26 662.604 1254.66 660.853 1255.47 659.648C1256.27 658.44 1257.44 657.836 1258.96 657.836Z" fill="black"/>
<path d="M1340.32 652.84V419.56" stroke="#CBCBCB" stroke-width="1.33333"/>
<path d="M1330.46 658.081H1337.69V659.633H1332.14V662.967C1332.41 662.875 1332.68 662.807 1332.94 662.763C1333.21 662.718 1333.48 662.696 1333.75 662.696C1335.27 662.696 1336.47 663.112 1337.36 663.944C1338.25 664.776 1338.69 665.903 1338.69 667.324C1338.69 668.789 1338.23 669.927 1337.32 670.74C1336.41 671.551 1335.12 671.956 1333.47 671.956C1332.89 671.956 1332.31 671.907 1331.72 671.81C1331.13 671.713 1330.52 671.567 1329.88 671.373V669.521C1330.43 669.818 1331 670.04 1331.58 670.186C1332.16 670.331 1332.78 670.404 1333.43 670.404C1334.48 670.404 1335.31 670.128 1335.92 669.576C1336.54 669.024 1336.85 668.273 1336.85 667.324C1336.85 666.377 1336.54 665.628 1335.92 665.076C1335.31 664.521 1334.48 664.244 1333.43 664.244C1332.94 664.244 1332.45 664.299 1331.96 664.408C1331.47 664.517 1330.97 664.687 1330.46 664.918V658.081Z" fill="black"/>
<path d="M1346.25 659.295C1345.31 659.295 1344.59 659.761 1344.11 660.695C1343.64 661.626 1343.4 663.028 1343.4 664.901C1343.4 666.765 1343.64 668.164 1344.11 669.098C1344.59 670.031 1345.31 670.498 1346.25 670.498C1347.21 670.498 1347.92 670.031 1348.4 669.098C1348.88 668.164 1349.12 666.765 1349.12 664.901C1349.12 663.028 1348.88 661.626 1348.4 660.695C1347.92 659.761 1347.21 659.295 1346.25 659.295ZM1346.25 657.836C1347.78 657.836 1348.94 658.44 1349.75 659.648C1350.55 660.853 1350.96 662.604 1350.96 664.901C1350.96 667.191 1350.55 668.94 1349.75 670.148C1348.94 671.353 1347.78 671.956 1346.25 671.956C1344.73 671.956 1343.56 671.353 1342.76 670.148C1341.95 668.94 1341.55 667.191 1341.55 664.901C1341.55 662.604 1341.95 660.853 1342.76 659.648C1343.56 658.44 1344.73 657.836 1346.25 657.836Z" fill="black"/>
<path d="M1421.67 652.84V419.56" stroke="#CBCBCB" stroke-width="1.33333"/>
<path d="M1406.17 670.142H1409.18V659.759L1405.91 660.415V658.738L1409.16 658.082H1411V670.142H1414.01V671.691H1406.17V670.142Z" fill="black"/>
<path d="M1421.66 659.295C1420.72 659.295 1420 659.761 1419.53 660.695C1419.05 661.626 1418.81 663.028 1418.81 664.901C1418.81 666.765 1419.05 668.164 1419.53 669.098C1420 670.031 1420.72 670.498 1421.66 670.498C1422.62 670.498 1423.33 670.031 1423.81 669.098C1424.29 668.164 1424.53 666.765 1424.53 664.901C1424.53 663.028 1424.29 661.626 1423.81 660.695C1423.33 659.761 1422.62 659.295 1421.66 659.295ZM1421.66 657.836C1423.19 657.836 1424.36 658.44 1425.16 659.648C1425.97 660.853 1426.37 662.604 1426.37 664.901C1426.37 667.191 1425.97 668.94 1425.16 670.148C1424.36 671.353 1423.19 671.956 1421.66 671.956C1420.14 671.956 1418.98 671.353 1418.17 670.148C1417.37 668.94 1416.96 667.191 1416.96 664.901C1416.96 662.604 1417.37 660.853 1418.17 659.648C1418.98 658.44 1420.14 657.836 1421.66 657.836Z" fill="black"/>
<path d="M1433.54 659.295C1432.59 659.295 1431.88 659.761 1431.4 660.695C1430.93 661.626 1430.69 663.028 1430.69 664.901C1430.69 666.765 1430.93 668.164 1431.4 669.098C1431.88 670.031 1432.59 670.498 1433.54 670.498C1434.5 670.498 1435.21 670.031 1435.69 669.098C1436.17 668.164 1436.4 666.765 1436.4 664.901C1436.4 663.028 1436.17 661.626 1435.69 660.695C1435.21 659.761 1434.5 659.295 1433.54 659.295ZM1433.54 657.836C1435.07 657.836 1436.23 658.44 1437.04 659.648C1437.84 660.853 1438.25 662.604 1438.25 664.901C1438.25 667.191 1437.84 668.94 1437.04 670.148C1436.23 671.353 1435.07 671.956 1433.54 671.956C1432.02 671.956 1430.85 671.353 1430.05 670.148C1429.24 668.94 1428.84 667.191 1428.84 664.901C1428.84 662.604 1429.24 660.853 1430.05 659.648C1430.85 658.44 1432.02 657.836 1433.54 657.836Z" fill="black"/>
<path d="M1226.43 652.84H1242.7V630.623H1226.43V652.84Z" fill="#008FD5" stroke="white" stroke-width="0.666667"/>
<path d="M1242.7 652.84H1258.97V430.669H1242.7V652.84Z" fill="#008FD5" stroke="white" stroke-width="0.666667"/>
<path d="M1258.97 652.84H1275.24V630.623H1258.97V652.84Z" fill="#008FD5" stroke="white" stroke-width="0.666667"/>
<path d="M1275.24 652.84H1291.51V586.189H1275.24V652.84Z" fill="#008FD5" stroke="white" stroke-width="0.666667"/>
<path d="M1291.51 652.84H1307.78V608.406H1291.51V652.84Z" fill="#008FD5" stroke="white" stroke-width="0.666667"/>
<path d="M1307.78 652.84H1324.05V608.406H1307.78V652.84Z" fill="#008FD5" stroke="white" stroke-width="0.666667"/>
<path d="M1324.05 652.84H1340.32V630.623H1324.05V652.84Z" fill="#008FD5" stroke="white" stroke-width="0.666667"/>
<path d="M1340.32 652.84H1356.59H1340.32Z" fill="#008FD5" stroke="white" stroke-width="0.666667"/>
<path d="M1356.59 652.84H1372.86H1356.59Z" fill="#008FD5" stroke="white" stroke-width="0.666667"/>
<path d="M1372.86 652.84H1389.13H1372.86Z" fill="#008FD5" stroke="white" stroke-width="0.666667"/>
<path d="M1389.13 652.84H1405.4H1389.13Z" fill="#008FD5" stroke="white" stroke-width="0.666667"/>
<path d="M1405.4 652.84H1421.67H1405.4Z" fill="#008FD5" stroke="white" stroke-width="0.666667"/>
<path d="M1421.67 652.84H1437.94H1421.67Z" fill="#008FD5" stroke="white" stroke-width="0.666667"/>
<path d="M1437.94 652.84H1454.21H1437.94Z" fill="#008FD5" stroke="white" stroke-width="0.666667"/>
<path d="M1286.07 652.84V419.56" stroke="#FF0000" stroke-width="5.33333"/>
<path d="M1215.04 652.84V419.56" stroke="#F0F0F0" stroke-width="4" stroke-linecap="square"/>
<path d="M1465.6 652.84V419.56" stroke="#F0F0F0" stroke-width="4" stroke-linecap="square"/>
<path d="M1215.04 652.84H1465.6" stroke="#F0F0F0" stroke-width="4" stroke-linecap="square"/>
<path d="M1215.04 419.56H1465.6" stroke="#F0F0F0" stroke-width="4" stroke-linecap="square"/>
<path d="M1304.31 392.606V395.193C1303.3 394.711 1302.35 394.353 1301.46 394.118C1300.57 393.88 1299.71 393.761 1298.87 393.761C1297.43 393.761 1296.32 394.041 1295.54 394.601C1294.75 395.161 1294.36 395.957 1294.36 396.99C1294.36 397.858 1294.62 398.514 1295.14 398.956C1295.66 399.396 1296.65 399.751 1298.1 400.023L1299.7 400.35C1301.68 400.728 1303.14 401.392 1304.08 402.341C1305.02 403.29 1305.49 404.56 1305.49 406.151C1305.49 408.052 1304.85 409.492 1303.58 410.472C1302.31 411.452 1300.44 411.942 1297.98 411.942C1297.06 411.942 1296.07 411.837 1295.02 411.627C1293.98 411.417 1292.9 411.107 1291.78 410.695V407.965C1292.85 408.567 1293.91 409.022 1294.94 409.33C1295.97 409.635 1296.99 409.788 1297.98 409.788C1299.5 409.788 1300.66 409.491 1301.49 408.897C1302.31 408.301 1302.72 407.451 1302.72 406.348C1302.72 405.388 1302.43 404.636 1301.84 404.093C1301.24 403.549 1300.28 403.142 1298.93 402.87L1297.31 402.555C1295.34 402.163 1293.9 401.547 1293.02 400.707C1292.14 399.867 1291.7 398.698 1291.7 397.2C1291.7 395.467 1292.31 394.102 1293.53 393.105C1294.75 392.109 1296.43 391.61 1298.57 391.61C1299.49 391.61 1300.43 391.694 1301.38 391.862C1302.34 392.027 1303.31 392.275 1304.31 392.606Z" fill="black"/>
<path d="M1316.2 404.172C1314.25 404.172 1312.9 404.395 1312.14 404.84C1311.39 405.285 1311.01 406.047 1311.01 407.125C1311.01 407.982 1311.3 408.662 1311.86 409.166C1312.43 409.667 1313.2 409.918 1314.16 409.918C1315.51 409.918 1316.58 409.443 1317.39 408.494C1318.2 407.545 1318.6 406.284 1318.6 404.71V404.172H1316.2ZM1321.02 403.173V411.56H1318.6V409.33C1318.05 410.22 1317.36 410.878 1316.54 411.304C1315.72 411.73 1314.71 411.942 1313.52 411.942C1312.02 411.942 1310.82 411.52 1309.93 410.674C1309.04 409.828 1308.6 408.697 1308.6 407.28C1308.6 405.628 1309.15 404.382 1310.26 403.542C1311.37 402.702 1313.02 402.282 1315.21 402.282H1318.6V402.043C1318.6 400.931 1318.24 400.072 1317.51 399.464C1316.78 398.857 1315.75 398.553 1314.43 398.553C1313.59 398.553 1312.77 398.654 1311.97 398.855C1311.18 399.057 1310.41 399.359 1309.68 399.762V397.528C1310.56 397.186 1311.42 396.932 1312.25 396.764C1313.08 396.593 1313.89 396.507 1314.68 396.507C1316.8 396.507 1318.39 397.059 1319.44 398.162C1320.49 399.263 1321.02 400.933 1321.02 403.173Z" fill="black"/>
<path d="M1337.44 399.683C1338.04 398.596 1338.76 397.796 1339.6 397.28C1340.44 396.765 1341.43 396.508 1342.57 396.508C1344.1 396.508 1345.28 397.044 1346.11 398.116C1346.94 399.186 1347.36 400.709 1347.36 402.686V411.56H1344.93V402.766C1344.93 401.357 1344.68 400.313 1344.18 399.632C1343.68 398.949 1342.92 398.608 1341.9 398.608C1340.65 398.608 1339.66 399.023 1338.93 399.855C1338.21 400.684 1337.84 401.816 1337.84 403.253V411.56H1335.42V402.766C1335.42 401.349 1335.17 400.302 1334.67 399.624C1334.17 398.946 1333.4 398.608 1332.36 398.608C1331.12 398.608 1330.14 399.025 1329.41 399.859C1328.69 400.694 1328.33 401.825 1328.33 403.253V411.56H1325.9V396.86H1328.33V399.145C1328.88 398.244 1329.54 397.579 1330.31 397.15C1331.08 396.722 1331.99 396.508 1333.05 396.508C1334.12 396.508 1335.03 396.779 1335.78 397.322C1336.52 397.863 1337.08 398.65 1337.44 399.683Z" fill="black"/>
<path d="M1354.51 409.355V417.15H1352.08V396.86H1354.51V399.09C1355.02 398.217 1355.66 397.569 1356.43 397.146C1357.21 396.72 1358.14 396.507 1359.21 396.507C1361 396.507 1362.45 397.216 1363.56 398.633C1364.68 400.049 1365.24 401.913 1365.24 404.223C1365.24 406.533 1364.68 408.398 1363.56 409.817C1362.45 411.234 1361 411.942 1359.21 411.942C1358.14 411.942 1357.21 411.73 1356.43 411.304C1355.66 410.878 1355.02 410.229 1354.51 409.355ZM1362.73 404.223C1362.73 402.448 1362.36 401.055 1361.63 400.044C1360.9 399.033 1359.9 398.528 1358.62 398.528C1357.34 398.528 1356.34 399.033 1355.61 400.044C1354.88 401.055 1354.51 402.448 1354.51 404.223C1354.51 405.998 1354.88 407.391 1355.61 408.402C1356.34 409.413 1357.34 409.918 1358.62 409.918C1359.9 409.918 1360.9 409.413 1361.63 408.402C1362.36 407.391 1362.73 405.998 1362.73 404.223Z" fill="black"/>
<path d="M1369.24 391.136H1371.65V411.56H1369.24V391.136Z" fill="black"/>
<path d="M1389.28 403.605V404.786H1378.18C1378.28 406.449 1378.78 407.716 1379.68 408.587C1380.58 409.457 1381.82 409.893 1383.43 409.893C1384.35 409.893 1385.25 409.779 1386.12 409.553C1386.99 409.326 1387.86 408.984 1388.72 408.528V410.813C1387.85 411.179 1386.96 411.459 1386.05 411.653C1385.14 411.846 1384.22 411.942 1383.28 411.942C1380.94 411.942 1379.08 411.261 1377.71 409.897C1376.34 408.531 1375.66 406.683 1375.66 404.353C1375.66 401.948 1376.31 400.04 1377.6 398.628C1378.9 397.214 1380.66 396.507 1382.86 396.507C1384.84 396.507 1386.4 397.144 1387.55 398.418C1388.71 399.69 1389.28 401.419 1389.28 403.605ZM1386.87 402.896C1386.85 401.577 1386.48 400.524 1385.76 399.737C1385.03 398.948 1384.08 398.553 1382.89 398.553C1381.54 398.553 1380.46 398.934 1379.65 399.695C1378.85 400.457 1378.38 401.529 1378.26 402.912L1386.87 402.896Z" fill="black"/>
<path d="M738.232 771.768C739.209 772.744 740.791 772.744 741.768 771.768L757.678 755.858C758.654 754.882 758.654 753.299 757.678 752.322C756.701 751.346 755.118 751.346 754.142 752.322L740 766.464L725.858 752.322C724.882 751.346 723.299 751.346 722.322 752.322C721.346 753.299 721.346 754.882 722.322 755.858L738.232 771.768ZM737.5 673L737.5 770L742.5 770L742.5 673L737.5 673Z" fill="black"/>
<g clip-path="url(#clip0_903_2079)">
<path d="M596 1058H884V770H596V1058Z" fill="#F0F0F0"/>
<path d="M619.04 1037.84H869.6V804.56H619.04V1037.84Z" fill="#F0F0F0"/>
<path d="M660.8 1037.84V804.56" stroke="#CBCBCB" stroke-width="1.33333"/>
<path d="M660.794 1044.29C659.847 1044.29 659.135 1044.76 658.656 1045.69C658.18 1046.63 657.942 1048.03 657.942 1049.9C657.942 1051.77 658.18 1053.16 658.656 1054.1C659.135 1055.03 659.847 1055.5 660.794 1055.5C661.749 1055.5 662.464 1055.03 662.941 1054.1C663.419 1053.16 663.658 1051.77 663.658 1049.9C663.658 1048.03 663.419 1046.63 662.941 1045.69C662.464 1044.76 661.749 1044.29 660.794 1044.29ZM660.794 1042.84C662.321 1042.84 663.486 1043.44 664.291 1044.65C665.096 1045.85 665.499 1047.6 665.499 1049.9C665.499 1052.19 665.096 1053.94 664.291 1055.15C663.486 1056.35 662.321 1056.96 660.794 1056.96C659.27 1056.96 658.105 1056.35 657.3 1055.15C656.495 1053.94 656.092 1052.19 656.092 1049.9C656.092 1047.6 656.495 1045.85 657.3 1044.65C658.105 1043.44 659.27 1042.84 660.794 1042.84Z" fill="black"/>
<path d="M765.2 1037.84V804.56" stroke="#CBCBCB" stroke-width="1.33333"/>
<path d="M755.339 1043.08H762.566V1044.63H757.025V1047.97C757.291 1047.88 757.557 1047.81 757.824 1047.76C758.092 1047.72 758.36 1047.7 758.629 1047.7C760.147 1047.7 761.35 1048.11 762.237 1048.94C763.125 1049.78 763.57 1050.9 763.57 1052.32C763.57 1053.79 763.114 1054.93 762.202 1055.74C761.29 1056.55 760.004 1056.96 758.346 1056.96C757.774 1056.96 757.192 1056.91 756.599 1056.81C756.008 1056.71 755.396 1056.57 754.764 1056.37V1054.52C755.311 1054.82 755.875 1055.04 756.459 1055.19C757.042 1055.33 757.658 1055.4 758.308 1055.4C759.36 1055.4 760.192 1055.13 760.805 1054.58C761.419 1054.02 761.726 1053.27 761.726 1052.32C761.726 1051.38 761.419 1050.63 760.805 1050.08C760.192 1049.52 759.36 1049.24 758.308 1049.24C757.816 1049.24 757.325 1049.3 756.835 1049.41C756.347 1049.52 755.848 1049.69 755.339 1049.92V1043.08Z" fill="black"/>
<path d="M771.132 1044.29C770.185 1044.29 769.473 1044.76 768.994 1045.69C768.518 1046.63 768.28 1048.03 768.28 1049.9C768.28 1051.77 768.518 1053.16 768.994 1054.1C769.473 1055.03 770.185 1055.5 771.132 1055.5C772.087 1055.5 772.802 1055.03 773.279 1054.1C773.757 1053.16 773.996 1051.77 773.996 1049.9C773.996 1048.03 773.757 1046.63 773.279 1045.69C772.802 1044.76 772.087 1044.29 771.132 1044.29ZM771.132 1042.84C772.659 1042.84 773.824 1043.44 774.629 1044.65C775.434 1045.85 775.837 1047.6 775.837 1049.9C775.837 1052.19 775.434 1053.94 774.629 1055.15C773.824 1056.35 772.659 1056.96 771.132 1056.96C769.608 1056.96 768.443 1056.35 767.638 1055.15C766.833 1053.94 766.43 1052.19 766.43 1049.9C766.43 1047.6 766.833 1045.85 767.638 1044.65C768.443 1043.44 769.608 1042.84 771.132 1042.84Z" fill="black"/>
<path d="M869.6 1037.84V804.56" stroke="#CBCBCB" stroke-width="1.33333"/>
<path d="M854.101 1055.14H857.108V1044.76L853.835 1045.41V1043.74L857.09 1043.08H858.931V1055.14H861.938V1056.69H854.101V1055.14Z" fill="black"/>
<path d="M869.594 1044.29C868.647 1044.29 867.934 1044.76 867.456 1045.69C866.979 1046.63 866.741 1048.03 866.741 1049.9C866.741 1051.77 866.979 1053.16 867.456 1054.1C867.934 1055.03 868.647 1055.5 869.594 1055.5C870.548 1055.5 871.264 1055.03 871.74 1054.1C872.219 1053.16 872.458 1051.77 872.458 1049.9C872.458 1048.03 872.219 1046.63 871.74 1045.69C871.264 1044.76 870.548 1044.29 869.594 1044.29ZM869.594 1042.84C871.12 1042.84 872.286 1043.44 873.091 1044.65C873.896 1045.85 874.298 1047.6 874.298 1049.9C874.298 1052.19 873.896 1053.94 873.091 1055.15C872.286 1056.35 871.12 1056.96 869.594 1056.96C868.069 1056.96 866.905 1056.35 866.1 1055.15C865.295 1053.94 864.892 1052.19 864.892 1049.9C864.892 1047.6 865.295 1045.85 866.1 1044.65C866.905 1043.44 868.069 1042.84 869.594 1042.84Z" fill="black"/>
<path d="M881.47 1044.29C880.523 1044.29 879.811 1044.76 879.332 1045.69C878.856 1046.63 878.618 1048.03 878.618 1049.9C878.618 1051.77 878.856 1053.16 879.332 1054.1C879.811 1055.03 880.523 1055.5 881.47 1055.5C882.425 1055.5 883.14 1055.03 883.617 1054.1C884.095 1053.16 884.334 1051.77 884.334 1049.9C884.334 1048.03 884.095 1046.63 883.617 1045.69C883.14 1044.76 882.425 1044.29 881.47 1044.29ZM881.47 1042.84C882.996 1042.84 884.162 1043.44 884.967 1044.65C885.772 1045.85 886.175 1047.6 886.175 1049.9C886.175 1052.19 885.772 1053.94 884.967 1055.15C884.162 1056.35 882.996 1056.96 881.47 1056.96C879.946 1056.96 878.781 1056.35 877.976 1055.15C877.171 1053.94 876.768 1052.19 876.768 1049.9C876.768 1047.6 877.171 1045.85 877.976 1044.65C878.781 1043.44 879.946 1042.84 881.47 1042.84Z" fill="black"/>
<path d="M668.233 1037.84H672.188V1027.4H668.233V1037.84Z" fill="#008FD5" stroke="white" stroke-width="0.666667"/>
<path d="M672.188 1037.84H676.143V1012.49H672.188V1037.84Z" fill="#008FD5" stroke="white" stroke-width="0.666667"/>
<path d="M676.143 1037.84H680.097V978.197H676.143V1037.84Z" fill="#008FD5" stroke="white" stroke-width="0.666667"/>
<path d="M680.097 1037.84H684.052V927.5H680.097V1037.84Z" fill="#008FD5" stroke="white" stroke-width="0.666667"/>
<path d="M684.052 1037.84H688.007V854.437H684.052V1037.84Z" fill="#008FD5" stroke="white" stroke-width="0.666667"/>
<path d="M688.007 1037.84H691.961V817.16H688.007V1037.84Z" fill="#008FD5" stroke="white" stroke-width="0.666667"/>
<path d="M691.961 1037.84H695.916V815.669H691.961V1037.84Z" fill="#008FD5" stroke="white" stroke-width="0.666667"/>
<path d="M695.916 1037.84H699.871V857.419H695.916V1037.84Z" fill="#008FD5" stroke="white" stroke-width="0.666667"/>
<path d="M699.871 1037.84H703.825V882.768H699.871V1037.84Z" fill="#008FD5" stroke="white" stroke-width="0.666667"/>
<path d="M703.825 1037.84H707.78V927.5H703.825V1037.84Z" fill="#008FD5" stroke="white" stroke-width="0.666667"/>
<path d="M707.78 1037.84H711.735V963.286H707.78V1037.84Z" fill="#008FD5" stroke="white" stroke-width="0.666667"/>
<path d="M711.735 1037.84H715.689V988.634H711.735V1037.84Z" fill="#008FD5" stroke="white" stroke-width="0.666667"/>
<path d="M715.689 1037.84H719.644V999.072H715.689V1037.84Z" fill="#008FD5" stroke="white" stroke-width="0.666667"/>
<path d="M719.644 1037.84H723.599V1013.98H719.644V1037.84Z" fill="#008FD5" stroke="white" stroke-width="0.666667"/>
<path d="M723.599 1037.84H727.553V1028.89H723.599V1037.84Z" fill="#008FD5" stroke="white" stroke-width="0.666667"/>
<path d="M727.553 1037.84H731.508V1034.86H727.553V1037.84Z" fill="#008FD5" stroke="white" stroke-width="0.666667"/>
<path d="M731.508 1037.84H735.463V1027.4H731.508V1037.84Z" fill="#008FD5" stroke="white" stroke-width="0.666667"/>
<path d="M735.463 1037.84H739.417V1036.35H735.463V1037.84Z" fill="#008FD5" stroke="white" stroke-width="0.666667"/>
<path d="M739.417 1037.84H743.372V1036.35H739.417V1037.84Z" fill="#008FD5" stroke="white" stroke-width="0.666667"/>
<path d="M743.372 1037.84H747.327V1036.35H743.372V1037.84Z" fill="#008FD5" stroke="white" stroke-width="0.666667"/>
<path d="M695.582 1037.84V804.56" stroke="#FF0000" stroke-width="4"/>
<path d="M619.04 1037.84V804.56" stroke="#F0F0F0" stroke-width="4" stroke-linecap="square"/>
<path d="M869.6 1037.84V804.56" stroke="#F0F0F0" stroke-width="4" stroke-linecap="square"/>
<path d="M619.04 1037.84H869.6" stroke="#F0F0F0" stroke-width="4" stroke-linecap="square"/>
<path d="M619.04 804.56H869.6" stroke="#F0F0F0" stroke-width="4" stroke-linecap="square"/>
<path d="M667.418 777.606V780.193C666.413 779.711 665.464 779.353 664.57 779.118C663.677 778.88 662.815 778.761 661.983 778.761C660.541 778.761 659.428 779.041 658.644 779.601C657.86 780.161 657.468 780.957 657.468 781.99C657.468 782.858 657.729 783.514 658.249 783.956C658.77 784.396 659.757 784.751 661.21 785.023L662.811 785.35C664.787 785.728 666.246 786.392 667.187 787.341C668.128 788.29 668.598 789.56 668.598 791.151C668.598 793.052 667.961 794.492 666.687 795.472C665.416 796.452 663.551 796.942 661.093 796.942C660.166 796.942 659.179 796.837 658.132 796.627C657.087 796.417 656.005 796.107 654.885 795.695V792.965C655.96 793.567 657.015 794.022 658.048 794.33C659.081 794.635 660.096 794.788 661.093 794.788C662.605 794.788 663.772 794.491 664.596 793.897C665.419 793.301 665.83 792.451 665.83 791.348C665.83 790.388 665.535 789.636 664.944 789.093C664.353 788.549 663.385 788.142 662.038 787.87L660.421 787.555C658.444 787.163 657.013 786.547 656.128 785.707C655.246 784.867 654.805 783.698 654.805 782.2C654.805 780.467 655.416 779.102 656.637 778.105C657.857 777.109 659.539 776.61 661.681 776.61C662.602 776.61 663.539 776.694 664.491 776.862C665.445 777.027 666.421 777.275 667.418 777.606Z" fill="black"/>
<path d="M679.31 789.172C677.359 789.172 676.006 789.395 675.253 789.84C674.5 790.285 674.123 791.047 674.123 792.125C674.123 792.982 674.406 793.662 674.972 794.166C675.537 794.667 676.304 794.918 677.273 794.918C678.614 794.918 679.69 794.443 680.499 793.494C681.308 792.545 681.713 791.284 681.713 789.71V789.172H679.31ZM684.128 788.173V796.56H681.713V794.33C681.161 795.22 680.474 795.878 679.65 796.304C678.827 796.73 677.821 796.942 676.631 796.942C675.127 796.942 673.93 796.52 673.04 795.674C672.152 794.828 671.708 793.697 671.708 792.28C671.708 790.628 672.261 789.382 673.367 788.542C674.476 787.702 676.128 787.282 678.323 787.282H681.713V787.043C681.713 785.931 681.347 785.072 680.616 784.464C679.886 783.857 678.859 783.553 677.538 783.553C676.698 783.553 675.879 783.654 675.081 783.855C674.286 784.057 673.521 784.359 672.788 784.762V782.528C673.67 782.186 674.526 781.932 675.358 781.764C676.19 781.593 676.999 781.507 677.786 781.507C679.914 781.507 681.503 782.059 682.553 783.162C683.603 784.263 684.128 785.933 684.128 788.173Z" fill="black"/>
<path d="M700.545 784.683C701.15 783.596 701.872 782.796 702.712 782.28C703.552 781.765 704.541 781.508 705.677 781.508C707.209 781.508 708.391 782.044 709.222 783.116C710.054 784.186 710.47 785.709 710.47 787.686V796.56H708.042V787.766C708.042 786.357 707.791 785.313 707.29 784.632C706.792 783.949 706.032 783.608 705.01 783.608C703.758 783.608 702.768 784.023 702.04 784.855C701.315 785.684 700.952 786.816 700.952 788.253V796.56H698.525V787.766C698.525 786.349 698.276 785.302 697.777 784.624C697.279 783.946 696.509 783.608 695.467 783.608C694.232 783.608 693.251 784.025 692.523 784.859C691.798 785.694 691.435 786.825 691.435 788.253V796.56H689.008V781.86H691.435V784.145C691.987 783.244 692.648 782.579 693.418 782.15C694.188 781.722 695.102 781.508 696.16 781.508C697.23 781.508 698.138 781.779 698.886 782.322C699.634 782.863 700.187 783.65 700.545 784.683Z" fill="black"/>
<path d="M717.619 794.355V802.15H715.192V781.86H717.619V784.09C718.129 783.217 718.77 782.569 719.543 782.146C720.319 781.72 721.244 781.507 722.319 781.507C724.106 781.507 725.556 782.216 726.67 783.633C727.788 785.049 728.346 786.913 728.346 789.223C728.346 791.533 727.788 793.398 726.67 794.817C725.556 796.234 724.106 796.942 722.319 796.942C721.244 796.942 720.319 796.73 719.543 796.304C718.77 795.878 718.129 795.229 717.619 794.355ZM725.839 789.223C725.839 787.448 725.473 786.055 724.743 785.044C724.012 784.033 723.008 783.528 721.731 783.528C720.452 783.528 719.446 784.033 718.716 785.044C717.985 786.055 717.619 787.448 717.619 789.223C717.619 790.998 717.985 792.391 718.716 793.402C719.446 794.413 720.452 794.918 721.731 794.918C723.008 794.918 724.012 794.413 724.743 793.402C725.473 792.391 725.839 790.998 725.839 789.223Z" fill="black"/>
<path d="M732.347 776.136H734.762V796.56H732.347V776.136Z" fill="black"/>
<path d="M752.39 788.605V789.786H741.285C741.391 791.449 741.893 792.716 742.789 793.587C743.685 794.457 744.933 794.893 746.535 794.893C747.462 794.893 748.361 794.779 749.231 794.553C750.102 794.326 750.967 793.984 751.827 793.528V795.813C750.959 796.179 750.07 796.459 749.16 796.653C748.25 796.846 747.327 796.942 746.392 796.942C744.046 796.942 742.188 796.261 740.819 794.897C739.45 793.531 738.765 791.683 738.765 789.353C738.765 786.948 739.415 785.04 740.714 783.628C742.013 782.214 743.766 781.507 745.972 781.507C747.949 781.507 749.513 782.144 750.664 783.418C751.814 784.69 752.39 786.419 752.39 788.605ZM749.975 787.896C749.958 786.577 749.588 785.524 748.866 784.737C748.144 783.948 747.187 783.553 745.997 783.553C744.651 783.553 743.573 783.934 742.763 784.695C741.954 785.457 741.488 786.529 741.365 787.912L749.975 787.896Z" fill="black"/>
<path d="M765.002 776.963H768.954L773.952 790.298L778.979 776.963H782.932V796.56H780.344V779.353L775.292 792.793H772.629L767.576 779.353V796.56H765.002V776.963Z" fill="black"/>
<path d="M800.663 788.605V789.786H789.559C789.665 791.449 790.166 792.716 791.062 793.587C791.958 794.457 793.207 794.893 794.809 794.893C795.735 794.893 796.634 794.779 797.505 794.553C798.376 794.326 799.241 793.984 800.101 793.528V795.813C799.233 796.179 798.344 796.459 797.434 796.653C796.524 796.846 795.601 796.942 794.666 796.942C792.319 796.942 790.462 796.261 789.092 794.897C787.723 793.531 787.039 791.683 787.039 789.353C787.039 786.948 787.688 785.04 788.987 783.628C790.287 782.214 792.039 781.507 794.246 781.507C796.223 781.507 797.786 782.144 798.937 783.418C800.088 784.69 800.663 786.419 800.663 788.605ZM798.248 787.896C798.232 786.577 797.862 785.524 797.14 784.737C796.417 783.948 795.461 783.553 794.271 783.553C792.924 783.553 791.846 783.934 791.037 784.695C790.228 785.457 789.762 786.529 789.638 787.912L798.248 787.896Z" fill="black"/>
<path d="M811.308 789.172C809.357 789.172 808.004 789.395 807.251 789.84C806.498 790.285 806.121 791.047 806.121 792.125C806.121 792.982 806.404 793.662 806.97 794.166C807.535 794.667 808.303 794.918 809.271 794.918C810.613 794.918 811.688 794.443 812.497 793.494C813.306 792.545 813.711 791.284 813.711 789.71V789.172H811.308ZM816.126 788.173V796.56H813.711V794.33C813.159 795.22 812.472 795.878 811.649 796.304C810.825 796.73 809.819 796.942 808.629 796.942C807.125 796.942 805.928 796.52 805.038 795.674C804.15 794.828 803.706 793.697 803.706 792.28C803.706 790.628 804.259 789.382 805.365 788.542C806.474 787.702 808.126 787.282 810.321 787.282H813.711V787.043C813.711 785.931 813.345 785.072 812.615 784.464C811.884 783.857 810.858 783.553 809.536 783.553C808.696 783.553 807.877 783.654 807.079 783.855C806.284 784.057 805.519 784.359 804.786 784.762V782.528C805.668 782.186 806.525 781.932 807.356 781.764C808.188 781.593 808.997 781.507 809.784 781.507C811.912 781.507 813.501 782.059 814.551 783.162C815.601 784.263 816.126 785.933 816.126 788.173Z" fill="black"/>
<path d="M833.32 787.686V796.56H830.905V787.766C830.905 786.374 830.633 785.334 830.09 784.645C829.547 783.953 828.734 783.608 827.65 783.608C826.345 783.608 825.316 784.023 824.563 784.855C823.81 785.684 823.433 786.816 823.433 788.253V796.56H821.006V781.86H823.433V784.145C824.013 783.26 824.693 782.6 825.474 782.163C826.258 781.726 827.163 781.508 828.188 781.508C829.876 781.508 831.153 782.03 832.018 783.074C832.886 784.119 833.32 785.656 833.32 787.686Z" fill="black"/>
</g>
<defs>
<clipPath id="clip0_903_2079">
<rect width="288" height="288" fill="white" transform="translate(596 770)"/>
</clipPath>
</defs>
</svg>
