<svg width="717" height="288" viewBox="0 0 717 288" fill="none" xmlns="http://www.w3.org/2000/svg">
<rect width="717" height="288" fill="white"/>
<path d="M429 288H717V0H429V288Z" fill="#F0F0F0"/>
<path d="M452.04 267.84H702.6V34.5601H452.04V267.84Z" fill="#F0F0F0"/>
<path d="M495.969 267.84V34.5601" stroke="#CBCBCB" stroke-width="1.33333"/>
<path d="M495.964 274.295C495.017 274.295 494.304 274.761 493.826 275.695C493.349 276.626 493.111 278.028 493.111 279.901C493.111 281.765 493.349 283.164 493.826 284.098C494.304 285.031 495.017 285.498 495.964 285.498C496.918 285.498 497.634 285.031 498.11 284.098C498.589 283.164 498.828 281.765 498.828 279.901C498.828 278.028 498.589 276.626 498.11 275.695C497.634 274.761 496.918 274.295 495.964 274.295ZM495.964 272.836C497.49 272.836 498.656 273.44 499.461 274.648C500.266 275.853 500.668 277.604 500.668 279.901C500.668 282.191 500.266 283.94 499.461 285.148C498.656 286.353 497.49 286.956 495.964 286.956C494.439 286.956 493.274 286.353 492.469 285.148C491.664 283.94 491.262 282.191 491.262 279.901C491.262 277.604 491.664 275.853 492.469 274.648C493.274 273.44 494.439 272.836 495.964 272.836Z" fill="black"/>
<path d="M577.32 267.84V34.5601" stroke="#CBCBCB" stroke-width="1.33333"/>
<path d="M567.459 273.081H574.686V274.633H569.145V277.967C569.411 277.875 569.677 277.807 569.944 277.763C570.212 277.718 570.48 277.696 570.749 277.696C572.267 277.696 573.47 278.112 574.357 278.944C575.245 279.776 575.69 280.903 575.69 282.324C575.69 283.789 575.234 284.927 574.322 285.74C573.41 286.551 572.124 286.956 570.466 286.956C569.894 286.956 569.312 286.907 568.719 286.81C568.128 286.713 567.516 286.567 566.884 286.373V284.521C567.431 284.818 567.995 285.04 568.579 285.186C569.162 285.331 569.778 285.404 570.428 285.404C571.48 285.404 572.312 285.128 572.925 284.576C573.539 284.024 573.846 283.273 573.846 282.324C573.846 281.377 573.539 280.628 572.925 280.076C572.312 279.521 571.48 279.244 570.428 279.244C569.936 279.244 569.445 279.299 568.955 279.408C568.467 279.517 567.968 279.687 567.459 279.918V273.081Z" fill="black"/>
<path d="M583.252 274.295C582.305 274.295 581.593 274.761 581.114 275.695C580.638 276.626 580.4 278.028 580.4 279.901C580.4 281.765 580.638 283.164 581.114 284.098C581.593 285.031 582.305 285.498 583.252 285.498C584.207 285.498 584.922 285.031 585.399 284.098C585.877 283.164 586.116 281.765 586.116 279.901C586.116 278.028 585.877 276.626 585.399 275.695C584.922 274.761 584.207 274.295 583.252 274.295ZM583.252 272.836C584.779 272.836 585.944 273.44 586.749 274.648C587.554 275.853 587.957 277.604 587.957 279.901C587.957 282.191 587.554 283.94 586.749 285.148C585.944 286.353 584.779 286.956 583.252 286.956C581.728 286.956 580.563 286.353 579.758 285.148C578.953 283.94 578.55 282.191 578.55 279.901C578.55 277.604 578.953 275.853 579.758 274.648C580.563 273.44 581.728 272.836 583.252 272.836Z" fill="black"/>
<path d="M658.671 267.84V34.5601" stroke="#CBCBCB" stroke-width="1.33333"/>
<path d="M643.171 285.142H646.179V274.759L642.906 275.415V273.738L646.161 273.082H648.001V285.142H651.009V286.691H643.171V285.142Z" fill="black"/>
<path d="M658.664 274.295C657.717 274.295 657.005 274.761 656.527 275.695C656.05 276.626 655.812 278.028 655.812 279.901C655.812 281.765 656.05 283.164 656.527 284.098C657.005 285.031 657.717 285.498 658.664 285.498C659.619 285.498 660.335 285.031 660.811 284.098C661.289 283.164 661.529 281.765 661.529 279.901C661.529 278.028 661.289 276.626 660.811 275.695C660.335 274.761 659.619 274.295 658.664 274.295ZM658.664 272.836C660.191 272.836 661.357 273.44 662.162 274.648C662.967 275.853 663.369 277.604 663.369 279.901C663.369 282.191 662.967 283.94 662.162 285.148C661.357 286.353 660.191 286.956 658.664 286.956C657.14 286.956 655.975 286.353 655.17 285.148C654.365 283.94 653.963 282.191 653.963 279.901C653.963 277.604 654.365 275.853 655.17 274.648C655.975 273.44 657.14 272.836 658.664 272.836Z" fill="black"/>
<path d="M670.541 274.295C669.594 274.295 668.881 274.761 668.403 275.695C667.926 276.626 667.688 278.028 667.688 279.901C667.688 281.765 667.926 283.164 668.403 284.098C668.881 285.031 669.594 285.498 670.541 285.498C671.496 285.498 672.211 285.031 672.687 284.098C673.166 283.164 673.405 281.765 673.405 279.901C673.405 278.028 673.166 276.626 672.687 275.695C672.211 274.761 671.496 274.295 670.541 274.295ZM670.541 272.836C672.067 272.836 673.233 273.44 674.038 274.648C674.843 275.853 675.245 277.604 675.245 279.901C675.245 282.191 674.843 283.94 674.038 285.148C673.233 286.353 672.067 286.956 670.541 286.956C669.016 286.956 667.852 286.353 667.047 285.148C666.242 283.94 665.839 282.191 665.839 279.901C665.839 277.604 666.242 275.853 667.047 274.648C667.852 273.44 669.016 272.836 670.541 272.836Z" fill="black"/>
<path d="M463.429 267.84H479.699H463.429Z" fill="#008FD5" stroke="white" stroke-width="0.666667"/>
<path d="M479.699 267.84H495.969V45.6687H479.699V267.84Z" fill="#008FD5" stroke="white" stroke-width="0.666667"/>
<path d="M495.969 267.84H512.239V77.4075H495.969V267.84Z" fill="#008FD5" stroke="white" stroke-width="0.666667"/>
<path d="M512.24 267.84H528.51H512.24Z" fill="#008FD5" stroke="white" stroke-width="0.666667"/>
<path d="M528.51 267.84H544.78V172.624H528.51V267.84Z" fill="#008FD5" stroke="white" stroke-width="0.666667"/>
<path d="M544.78 267.84H561.05V236.101H544.78V267.84Z" fill="#008FD5" stroke="white" stroke-width="0.666667"/>
<path d="M561.05 267.84H577.32V236.101H561.05V267.84Z" fill="#008FD5" stroke="white" stroke-width="0.666667"/>
<path d="M577.32 267.84H593.59H577.32Z" fill="#008FD5" stroke="white" stroke-width="0.666667"/>
<path d="M593.59 267.84H609.86H593.59Z" fill="#008FD5" stroke="white" stroke-width="0.666667"/>
<path d="M609.86 267.84H626.13H609.86Z" fill="#008FD5" stroke="white" stroke-width="0.666667"/>
<path d="M626.13 267.84H642.401V236.101H626.13V267.84Z" fill="#008FD5" stroke="white" stroke-width="0.666667"/>
<path d="M642.401 267.84H658.671V236.101H642.401V267.84Z" fill="#008FD5" stroke="white" stroke-width="0.666667"/>
<path d="M658.671 267.84H674.941H658.671Z" fill="#008FD5" stroke="white" stroke-width="0.666667"/>
<path d="M674.941 267.84H691.211H674.941Z" fill="#008FD5" stroke="white" stroke-width="0.666667"/>
<path d="M523.072 267.84V34.5601" stroke="#FF0000" stroke-width="5.33333"/>
<path d="M452.04 267.84V34.5601" stroke="#F0F0F0" stroke-width="4" stroke-linecap="square"/>
<path d="M702.6 267.84V34.5601" stroke="#F0F0F0" stroke-width="4" stroke-linecap="square"/>
<path d="M452.04 267.84H702.6" stroke="#F0F0F0" stroke-width="4" stroke-linecap="square"/>
<path d="M452.04 34.5601H702.6" stroke="#F0F0F0" stroke-width="4" stroke-linecap="square"/>
<path d="M541.309 7.60558V10.1928C540.304 9.71118 539.355 9.35278 538.462 9.11758C537.568 8.87958 536.706 8.76058 535.874 8.76058C534.432 8.76058 533.319 9.04058 532.535 9.60058C531.751 10.1606 531.359 10.9572 531.359 11.9904C531.359 12.8584 531.62 13.5136 532.141 13.956C532.661 14.3956 533.648 14.7512 535.102 15.0228L536.702 15.3504C538.679 15.7284 540.137 16.392 541.078 17.3412C542.019 18.2904 542.489 19.5602 542.489 21.1506C542.489 23.0518 541.852 24.4924 540.578 25.4724C539.307 26.4524 537.442 26.9424 534.984 26.9424C534.057 26.9424 533.07 26.8374 532.023 26.6274C530.979 26.4174 529.896 26.1066 528.776 25.695V22.965C529.852 23.567 530.906 24.022 531.939 24.33C532.972 24.6352 533.987 24.7878 534.984 24.7878C536.496 24.7878 537.664 24.491 538.487 23.8974C539.31 23.301 539.722 22.4512 539.722 21.348C539.722 20.3876 539.426 19.6358 538.835 19.0926C538.245 18.5494 537.276 18.142 535.929 17.8704L534.312 17.5554C532.335 17.1634 530.904 16.5474 530.02 15.7074C529.138 14.8674 528.697 13.6984 528.697 12.2004C528.697 10.4672 529.307 9.10218 530.528 8.10538C531.749 7.10858 533.43 6.61018 535.572 6.61018C536.493 6.61018 537.43 6.69418 538.382 6.86218C539.337 7.02738 540.312 7.27518 541.309 7.60558Z" fill="black"/>
<path d="M553.202 19.1724C551.25 19.1724 549.898 19.395 549.144 19.8402C548.391 20.2854 548.015 21.047 548.015 22.125C548.015 22.9818 548.297 23.6622 548.863 24.1662C549.429 24.6674 550.196 24.918 551.165 24.918C552.506 24.918 553.581 24.4434 554.39 23.4942C555.199 22.545 555.604 21.2836 555.604 19.71V19.1724H553.202ZM558.019 18.1728V26.5602H555.604V24.33C555.052 25.2204 554.365 25.8784 553.542 26.304C552.719 26.7296 551.712 26.9424 550.522 26.9424C549.018 26.9424 547.821 26.5196 546.931 25.674C546.043 24.8284 545.6 23.6972 545.6 22.2804C545.6 20.6284 546.153 19.3824 547.259 18.5424C548.367 17.7024 550.019 17.2824 552.215 17.2824H555.604V17.043C555.604 15.9314 555.239 15.0718 554.508 14.4642C553.777 13.8566 552.751 13.5528 551.429 13.5528C550.589 13.5528 549.77 13.6536 548.972 13.8552C548.177 14.0568 547.413 14.3592 546.679 14.7624V12.528C547.561 12.1864 548.418 11.9316 549.249 11.7636C550.081 11.5928 550.89 11.5074 551.677 11.5074C553.805 11.5074 555.394 12.059 556.444 13.1622C557.494 14.2626 558.019 15.9328 558.019 18.1728Z" fill="black"/>
<path d="M574.436 14.6827C575.041 13.5963 575.763 12.7955 576.603 12.2803C577.443 11.7651 578.432 11.5075 579.569 11.5075C581.1 11.5075 582.282 12.0437 583.113 13.1161C583.945 14.1857 584.361 15.7089 584.361 17.6857V26.5603H581.933V17.7655C581.933 16.3571 581.683 15.3127 581.181 14.6323C580.683 13.9491 579.923 13.6075 578.901 13.6075C577.649 13.6075 576.659 14.0233 575.931 14.8549C575.206 15.6837 574.844 16.8163 574.844 18.2527V26.5603H572.416V17.7655C572.416 16.3487 572.167 15.3015 571.668 14.6239C571.17 13.9463 570.4 13.6075 569.358 13.6075C568.124 13.6075 567.142 14.0247 566.414 14.8591C565.689 15.6935 565.326 16.8247 565.326 18.2527V26.5603H562.899V11.8603H565.326V14.1451C565.878 13.2435 566.539 12.5785 567.309 12.1501C568.079 11.7217 568.993 11.5075 570.051 11.5075C571.121 11.5075 572.03 11.7791 572.777 12.3223C573.525 12.8627 574.078 13.6495 574.436 14.6827Z" fill="black"/>
<path d="M591.511 24.3552V32.1504H589.083V11.8602H591.511V14.0904C592.02 13.2168 592.662 12.5686 593.434 12.1458C594.21 11.7202 595.135 11.5074 596.211 11.5074C597.997 11.5074 599.447 12.2158 600.562 13.6326C601.679 15.0494 602.238 16.9128 602.238 19.2228C602.238 21.5328 601.679 23.3976 600.562 24.8172C599.447 26.234 597.997 26.9424 596.211 26.9424C595.135 26.9424 594.21 26.7296 593.434 26.304C592.662 25.8784 592.02 25.2288 591.511 24.3552ZM599.73 19.2228C599.73 17.4476 599.365 16.0546 598.634 15.0438C597.903 14.033 596.899 13.5276 595.623 13.5276C594.343 13.5276 593.338 14.033 592.607 15.0438C591.876 16.0546 591.511 17.4476 591.511 19.2228C591.511 20.998 591.876 22.391 592.607 23.4018C593.338 24.4126 594.343 24.918 595.623 24.918C596.899 24.918 597.903 24.4126 598.634 23.4018C599.365 22.391 599.73 20.998 599.73 19.2228Z" fill="black"/>
<path d="M606.238 6.1357H608.653V26.5603H606.238V6.1357Z" fill="black"/>
<path d="M626.281 18.6054V19.7856H615.176C615.283 21.4488 615.784 22.7158 616.68 23.5866C617.576 24.4574 618.825 24.8928 620.426 24.8928C621.353 24.8928 622.252 24.7794 623.123 24.5526C623.993 24.3258 624.859 23.9842 625.718 23.5278V25.8126C624.85 26.1794 623.961 26.4594 623.051 26.6526C622.141 26.8458 621.219 26.9424 620.283 26.9424C617.937 26.9424 616.079 26.2606 614.71 24.897C613.341 23.5306 612.656 21.6826 612.656 19.353C612.656 16.9478 613.306 15.0396 614.605 13.6284C615.904 12.2144 617.657 11.5074 619.863 11.5074C621.84 11.5074 623.404 12.1444 624.555 13.4184C625.706 14.6896 626.281 16.4186 626.281 18.6054ZM623.866 17.8956C623.849 16.5768 623.48 15.524 622.757 14.7372C622.035 13.9476 621.079 13.5528 619.889 13.5528C618.542 13.5528 617.464 13.9336 616.655 14.6952C615.845 15.4568 615.379 16.5292 615.256 17.9124L623.866 17.8956Z" fill="black"/>
<path d="M0 288H288V0H0V288Z" fill="#F0F0F0"/>
<path d="M23.04 267.84H273.6V34.5601H23.04V267.84Z" fill="#F0F0F0"/>
<path d="M66.9694 267.84V34.5601" stroke="#CBCBCB" stroke-width="1.33333"/>
<path d="M66.9635 274.295C66.0166 274.295 65.3039 274.761 64.8256 275.695C64.3492 276.626 64.111 278.028 64.111 279.901C64.111 281.765 64.3492 283.164 64.8256 284.098C65.3039 285.031 66.0166 285.498 66.9635 285.498C67.9182 285.498 68.6338 285.031 69.1102 284.098C69.5885 283.164 69.8277 281.765 69.8277 279.901C69.8277 278.028 69.5885 276.626 69.1102 275.695C68.6338 274.761 67.9182 274.295 66.9635 274.295ZM66.9635 272.836C68.4899 272.836 69.6556 273.44 70.4606 274.648C71.2656 275.853 71.6681 277.604 71.6681 279.901C71.6681 282.191 71.2656 283.94 70.4606 285.148C69.6556 286.353 68.4899 286.956 66.9635 286.956C65.4391 286.956 64.2743 286.353 63.4693 285.148C62.6643 283.94 62.2618 282.191 62.2618 279.901C62.2618 277.604 62.6643 275.853 63.4693 274.648C64.2743 273.44 65.4391 272.836 66.9635 272.836Z" fill="black"/>
<path d="M148.32 267.84V34.5601" stroke="#CBCBCB" stroke-width="1.33333"/>
<path d="M138.459 273.081H145.686V274.633H140.145V277.967C140.411 277.875 140.677 277.807 140.944 277.763C141.212 277.718 141.48 277.696 141.749 277.696C143.267 277.696 144.47 278.112 145.357 278.944C146.245 279.776 146.69 280.903 146.69 282.324C146.69 283.789 146.234 284.927 145.322 285.74C144.41 286.551 143.124 286.956 141.466 286.956C140.894 286.956 140.312 286.907 139.719 286.81C139.128 286.713 138.516 286.567 137.884 286.373V284.521C138.431 284.818 138.995 285.04 139.579 285.186C140.162 285.331 140.778 285.404 141.428 285.404C142.48 285.404 143.312 285.128 143.925 284.576C144.539 284.024 144.846 283.273 144.846 282.324C144.846 281.377 144.539 280.628 143.925 280.076C143.312 279.521 142.48 279.244 141.428 279.244C140.936 279.244 140.445 279.299 139.955 279.408C139.467 279.517 138.968 279.687 138.459 279.918V273.081Z" fill="black"/>
<path d="M154.252 274.295C153.305 274.295 152.592 274.761 152.114 275.695C151.638 276.626 151.4 278.028 151.4 279.901C151.4 281.765 151.638 283.164 152.114 284.098C152.592 285.031 153.305 285.498 154.252 285.498C155.207 285.498 155.922 285.031 156.399 284.098C156.877 283.164 157.116 281.765 157.116 279.901C157.116 278.028 156.877 276.626 156.399 275.695C155.922 274.761 155.207 274.295 154.252 274.295ZM154.252 272.836C155.778 272.836 156.944 273.44 157.749 274.648C158.554 275.853 158.957 277.604 158.957 279.901C158.957 282.191 158.554 283.94 157.749 285.148C156.944 286.353 155.778 286.956 154.252 286.956C152.728 286.956 151.563 286.353 150.758 285.148C149.953 283.94 149.55 282.191 149.55 279.901C149.55 277.604 149.953 275.853 150.758 274.648C151.563 273.44 152.728 272.836 154.252 272.836Z" fill="black"/>
<path d="M229.671 267.84V34.5601" stroke="#CBCBCB" stroke-width="1.33333"/>
<path d="M214.171 285.142H217.179V274.759L213.906 275.415V273.738L217.161 273.082H219.001V285.142H222.009V286.691H214.171V285.142Z" fill="black"/>
<path d="M229.664 274.295C228.717 274.295 228.005 274.761 227.527 275.695C227.05 276.626 226.812 278.028 226.812 279.901C226.812 281.765 227.05 283.164 227.527 284.098C228.005 285.031 228.717 285.498 229.664 285.498C230.619 285.498 231.335 285.031 231.811 284.098C232.289 283.164 232.529 281.765 232.529 279.901C232.529 278.028 232.289 276.626 231.811 275.695C231.335 274.761 230.619 274.295 229.664 274.295ZM229.664 272.836C231.191 272.836 232.357 273.44 233.162 274.648C233.967 275.853 234.369 277.604 234.369 279.901C234.369 282.191 233.967 283.94 233.162 285.148C232.357 286.353 231.191 286.956 229.664 286.956C228.14 286.956 226.975 286.353 226.17 285.148C225.365 283.94 224.963 282.191 224.963 279.901C224.963 277.604 225.365 275.853 226.17 274.648C226.975 273.44 228.14 272.836 229.664 272.836Z" fill="black"/>
<path d="M241.541 274.295C240.594 274.295 239.881 274.761 239.403 275.695C238.926 276.626 238.688 278.028 238.688 279.901C238.688 281.765 238.926 283.164 239.403 284.098C239.881 285.031 240.594 285.498 241.541 285.498C242.495 285.498 243.211 285.031 243.687 284.098C244.166 283.164 244.405 281.765 244.405 279.901C244.405 278.028 244.166 276.626 243.687 275.695C243.211 274.761 242.495 274.295 241.541 274.295ZM241.541 272.836C243.067 272.836 244.233 273.44 245.038 274.648C245.843 275.853 246.245 277.604 246.245 279.901C246.245 282.191 245.843 283.94 245.038 285.148C244.233 286.353 243.067 286.956 241.541 286.956C240.016 286.956 238.851 286.353 238.046 285.148C237.241 283.94 236.839 282.191 236.839 279.901C236.839 277.604 237.241 275.853 238.046 274.648C238.851 273.44 240.016 272.836 241.541 272.836Z" fill="black"/>
<path d="M34.4291 267.84H50.6992V265.393H34.4291V267.84Z" fill="#008FD5" stroke="white" stroke-width="0.666667"/>
<path d="M50.6992 267.84H66.9693V45.6687H50.6992V267.84Z" fill="#008FD5" stroke="white" stroke-width="0.666667"/>
<path d="M66.9694 267.84H83.2395V87.2646H66.9694V267.84Z" fill="#008FD5" stroke="white" stroke-width="0.666667"/>
<path d="M83.2395 267.84H99.5096V203.555H83.2395V267.84Z" fill="#008FD5" stroke="white" stroke-width="0.666667"/>
<path d="M99.5096 267.84H115.78V233.451H99.5096V267.84Z" fill="#008FD5" stroke="white" stroke-width="0.666667"/>
<path d="M115.78 267.84H132.05V241.592H115.78V267.84Z" fill="#008FD5" stroke="white" stroke-width="0.666667"/>
<path d="M132.05 267.84H148.32V251.958H132.05V267.84Z" fill="#008FD5" stroke="white" stroke-width="0.666667"/>
<path d="M148.32 267.84H164.59V254.449H148.32V267.84Z" fill="#008FD5" stroke="white" stroke-width="0.666667"/>
<path d="M164.59 267.84H180.86V258.231H164.59V267.84Z" fill="#008FD5" stroke="white" stroke-width="0.666667"/>
<path d="M180.86 267.84H197.13V259.299H180.86V267.84Z" fill="#008FD5" stroke="white" stroke-width="0.666667"/>
<path d="M197.13 267.84H213.4V261.078H197.13V267.84Z" fill="#008FD5" stroke="white" stroke-width="0.666667"/>
<path d="M213.401 267.84H229.671V261.701H213.401V267.84Z" fill="#008FD5" stroke="white" stroke-width="0.666667"/>
<path d="M229.671 267.84H245.941V263.792H229.671V267.84Z" fill="#008FD5" stroke="white" stroke-width="0.666667"/>
<path d="M245.941 267.84H262.211V264.281H245.941V267.84Z" fill="#008FD5" stroke="white" stroke-width="0.666667"/>
<path d="M94.0724 267.84V34.5601" stroke="#FF0000" stroke-width="5.33333"/>
<path d="M23.04 267.84V34.5601" stroke="#F0F0F0" stroke-width="4" stroke-linecap="square"/>
<path d="M273.6 267.84V34.5601" stroke="#F0F0F0" stroke-width="4" stroke-linecap="square"/>
<path d="M23.04 267.84H273.6" stroke="#F0F0F0" stroke-width="4" stroke-linecap="square"/>
<path d="M23.04 34.5601H273.6" stroke="#F0F0F0" stroke-width="4" stroke-linecap="square"/>
<path d="M83.0037 9.1429V16.5055H86.3385C87.5733 16.5055 88.5267 16.1863 89.1987 15.5479C89.8735 14.9095 90.2109 13.9995 90.2109 12.8179C90.2109 11.6447 89.8735 10.7389 89.1987 10.1005C88.5267 9.4621 87.5733 9.1429 86.3385 9.1429H83.0037ZM80.3535 6.9631H86.3385C88.5365 6.9631 90.1969 7.4601 91.3197 8.4541C92.4453 9.4481 93.0081 10.9027 93.0081 12.8179C93.0081 14.7527 92.4453 16.2143 91.3197 17.2027C90.1969 18.1911 88.5365 18.6853 86.3385 18.6853H83.0037V26.5603H80.3535V6.9631Z" fill="black"/>
<path d="M101.179 13.5528C99.8851 13.5528 98.8617 14.0582 98.1085 15.069C97.3553 16.0798 96.9787 17.4644 96.9787 19.2228C96.9787 20.9812 97.3525 22.3658 98.1001 23.3766C98.8505 24.3874 99.8767 24.8928 101.179 24.8928C102.467 24.8928 103.486 24.386 104.236 23.3724C104.989 22.356 105.366 20.9728 105.366 19.2228C105.366 17.4812 104.989 16.1008 104.236 15.0816C103.486 14.0624 102.467 13.5528 101.179 13.5528ZM101.179 11.5074C103.279 11.5074 104.928 12.1906 106.126 13.557C107.327 14.9206 107.928 16.8092 107.928 19.2228C107.928 21.628 107.327 23.5166 106.126 24.8886C104.928 26.2578 103.279 26.9424 101.179 26.9424C99.0703 26.9424 97.4183 26.2578 96.2227 24.8886C95.0299 23.5166 94.4335 21.628 94.4335 19.2228C94.4335 16.8092 95.0299 14.9206 96.2227 13.557C97.4183 12.1906 99.0703 11.5074 101.179 11.5074Z" fill="black"/>
<path d="M114.264 24.3552V32.1504H111.837V11.8602H114.264V14.0904C114.774 13.2168 115.415 12.5686 116.188 12.1458C116.963 11.7202 117.889 11.5074 118.964 11.5074C120.75 11.5074 122.201 12.2158 123.315 13.6326C124.432 15.0494 124.991 16.9128 124.991 19.2228C124.991 21.5328 124.432 23.3976 123.315 24.8172C122.201 26.234 120.75 26.9424 118.964 26.9424C117.889 26.9424 116.963 26.7296 116.188 26.304C115.415 25.8784 114.774 25.2288 114.264 24.3552ZM122.484 19.2228C122.484 17.4476 122.118 16.0546 121.387 15.0438C120.657 14.033 119.653 13.5276 118.376 13.5276C117.096 13.5276 116.091 14.033 115.36 15.0438C114.63 16.0546 114.264 17.4476 114.264 19.2228C114.264 20.998 114.63 22.391 115.36 23.4018C116.091 24.4126 117.096 24.918 118.376 24.918C119.653 24.918 120.657 24.4126 121.387 23.4018C122.118 22.391 122.484 20.998 122.484 19.2228Z" fill="black"/>
<path d="M128.744 20.76V11.8602H131.159V20.6676C131.159 22.0592 131.429 23.1036 131.969 23.8008C132.513 24.4952 133.327 24.8424 134.414 24.8424C135.716 24.8424 136.745 24.4266 137.501 23.595C138.26 22.7634 138.639 21.6294 138.639 20.193V11.8602H141.054V26.5602H138.639V24.3006C138.054 25.1938 137.373 25.8574 136.598 26.2914C135.825 26.7254 134.926 26.9424 133.901 26.9424C132.213 26.9424 130.931 26.4174 130.054 25.3674C129.181 24.3174 128.744 22.7816 128.744 20.76Z" fill="black"/>
<path d="M146.028 6.1357H148.443V26.5603H146.028V6.1357Z" fill="black"/>
<path d="M160.178 19.1724C158.227 19.1724 156.874 19.395 156.121 19.8402C155.368 20.2854 154.991 21.047 154.991 22.125C154.991 22.9818 155.274 23.6622 155.84 24.1662C156.405 24.6674 157.172 24.918 158.141 24.918C159.482 24.918 160.558 24.4434 161.367 23.4942C162.176 22.545 162.581 21.2836 162.581 19.71V19.1724H160.178ZM164.996 18.1728V26.5602H162.581V24.33C162.029 25.2204 161.342 25.8784 160.518 26.304C159.695 26.7296 158.689 26.9424 157.499 26.9424C155.995 26.9424 154.798 26.5196 153.908 25.674C153.02 24.8284 152.576 23.6972 152.576 22.2804C152.576 20.6284 153.129 19.3824 154.235 18.5424C155.344 17.7024 156.996 17.2824 159.191 17.2824H162.581V17.043C162.581 15.9314 162.215 15.0718 161.484 14.4642C160.754 13.8566 159.727 13.5528 158.406 13.5528C157.566 13.5528 156.747 13.6536 155.949 13.8552C155.154 14.0568 154.389 14.3592 153.656 14.7624V12.528C154.538 12.1864 155.394 11.9316 156.226 11.7636C157.058 11.5928 157.867 11.5074 158.654 11.5074C160.782 11.5074 162.371 12.059 163.421 13.1622C164.471 14.2626 164.996 15.9328 164.996 18.1728Z" fill="black"/>
<path d="M172.358 7.6855V11.8603H177.331V13.7377H172.358V21.7177C172.358 22.9161 172.522 23.6861 172.849 24.0277C173.177 24.3693 173.845 24.5401 174.853 24.5401H177.331V26.5603H174.853C172.988 26.5603 171.701 26.2131 170.993 25.5187C170.284 24.8215 169.93 23.5545 169.93 21.7177V13.7377H168.158V11.8603H169.93V7.6855H172.358Z" fill="black"/>
<path d="M180.507 11.8603H182.922V26.5603H180.507V11.8603ZM180.507 6.1357H182.922V9.1975H180.507V6.1357Z" fill="black"/>
<path d="M193.671 13.5528C192.377 13.5528 191.354 14.0582 190.6 15.069C189.847 16.0798 189.471 17.4644 189.471 19.2228C189.471 20.9812 189.844 22.3658 190.592 23.3766C191.342 24.3874 192.369 24.8928 193.671 24.8928C194.959 24.8928 195.978 24.386 196.728 23.3724C197.481 22.356 197.858 20.9728 197.858 19.2228C197.858 17.4812 197.481 16.1008 196.728 15.0816C195.978 14.0624 194.959 13.5528 193.671 13.5528ZM193.671 11.5074C195.771 11.5074 197.42 12.1906 198.618 13.557C199.819 14.9206 200.42 16.8092 200.42 19.2228C200.42 21.628 199.819 23.5166 198.618 24.8886C197.42 26.2578 195.771 26.9424 193.671 26.9424C191.562 26.9424 189.91 26.2578 188.715 24.8886C187.522 23.5166 186.925 21.628 186.925 19.2228C186.925 16.8092 187.522 14.9206 188.715 13.557C189.91 12.1906 191.562 11.5074 193.671 11.5074Z" fill="black"/>
<path d="M216.643 17.6857V26.5603H214.228V17.7655C214.228 16.3739 213.956 15.3337 213.413 14.6449C212.87 13.9533 212.057 13.6075 210.973 13.6075C209.668 13.6075 208.639 14.0233 207.886 14.8549C207.133 15.6837 206.756 16.8163 206.756 18.2527V26.5603H204.329V11.8603H206.756V14.1451C207.336 13.2603 208.016 12.5995 208.797 12.1627C209.581 11.7259 210.486 11.5075 211.511 11.5075C213.199 11.5075 214.476 12.0297 215.341 13.0741C216.209 14.1185 216.643 15.6557 216.643 17.6857Z" fill="black"/>
<path d="M418.061 145.061C418.646 144.475 418.646 143.525 418.061 142.939L408.515 133.393C407.929 132.808 406.979 132.808 406.393 133.393C405.808 133.979 405.808 134.929 406.393 135.515L414.879 144L406.393 152.485C405.808 153.071 405.808 154.021 406.393 154.607C406.979 155.192 407.929 155.192 408.515 154.607L418.061 145.061ZM296 145.5L417 145.5V142.5L296 142.5V145.5Z" fill="black"/>
<path d="M318.758 115.385V113.422C318.758 109.633 316.668 107.387 313.436 107.387C310.203 107.387 308.074 109.633 308.074 113.422V115.385C308.074 119.154 310.164 121.283 313.396 121.283C316.639 121.283 318.758 119.154 318.758 115.385ZM317.049 113.412V115.385C317.049 118.373 315.477 119.75 313.416 119.75C311.365 119.75 309.783 118.373 309.783 115.385V113.412C309.783 110.434 311.365 108.92 313.416 108.92C315.477 108.92 317.049 110.434 317.049 113.412ZM321.326 121H323.006V114.75C323.006 113.344 323.768 112.094 325.535 112.094C327.029 112.094 328.045 112.973 328.045 114.701V121H329.725V114.418C329.725 111.918 328.152 110.57 326.043 110.57C324.373 110.57 323.426 111.439 323.045 112.094H322.996V110.736H321.326V121ZM336.453 121.166C338.719 121.166 340.076 119.906 340.467 118.207H338.797C338.465 119.164 337.684 119.76 336.492 119.76C334.822 119.76 333.826 118.422 333.826 116.469V116.283H340.604V115.326C340.604 112.504 339.061 110.57 336.375 110.57C333.68 110.57 332.146 112.504 332.146 115.209V116.361C332.146 119.281 333.777 121.166 336.453 121.166ZM333.826 114.926V114.896C333.826 113.275 334.822 111.977 336.385 111.977C337.918 111.977 338.924 113.266 338.924 114.896V114.926H333.826ZM346.727 113.676C346.727 115.531 348.299 116.117 350.213 116.508C351.648 116.791 352.791 117.016 352.791 118.178C352.791 119.047 352.078 119.789 350.506 119.789C349.139 119.789 348.338 119.174 348.191 118.236H346.551C346.551 120.082 348.123 121.166 350.379 121.166C352.791 121.166 354.441 120.014 354.441 117.973C354.441 115.971 352.82 115.453 350.896 115.111C349.725 114.896 348.367 114.652 348.367 113.5C348.367 112.484 349.246 111.947 350.467 111.947C352.068 111.947 352.557 112.865 352.615 113.646H354.178C354.178 111.947 352.938 110.57 350.525 110.57C348.553 110.57 346.727 111.508 346.727 113.676ZM359.598 121.166C361.111 121.166 362.049 120.551 362.566 119.721H362.615V121H364.227V113.92C364.227 111.762 362.635 110.57 360.447 110.57C357.967 110.57 356.746 111.879 356.639 113.676H358.221C358.318 112.65 359.07 111.977 360.389 111.977C361.775 111.977 362.557 112.719 362.557 114.066V115.111H359.852C357.498 115.121 356.248 116.254 356.248 118.051C356.248 119.936 357.615 121.166 359.598 121.166ZM360.047 119.77C358.973 119.77 357.967 119.203 357.967 117.992C357.967 117.064 358.572 116.4 359.979 116.4H362.557V117.592C362.557 118.871 361.482 119.77 360.047 119.77ZM367.127 121H368.807V114.496C368.807 112.943 369.793 112.084 371.053 112.084C372.449 112.084 373.289 112.943 373.289 114.516V121H374.959V114.516C374.959 113.09 375.77 112.084 377.225 112.084C378.689 112.084 379.441 113.051 379.441 114.359V121H381.111V114.018C381.111 111.908 379.832 110.57 377.664 110.57C375.994 110.57 374.91 111.342 374.52 112.221H374.441C374.041 111.215 373.084 110.57 371.482 110.57C370.125 110.57 369.217 111.293 368.885 111.996H368.797V110.736H367.127V121ZM388.709 121.166C391.121 121.166 392.801 119.34 392.801 116.342V115.395C392.801 112.357 391.092 110.58 388.777 110.58C387.4 110.58 386.346 111.244 385.75 112.211H385.701V110.736H384.09V124.408H385.77V119.633H385.818C386.395 120.541 387.4 121.166 388.709 121.166ZM388.543 119.701C386.795 119.701 385.74 118.314 385.74 116.215V115.443C385.74 113.402 386.785 112.025 388.494 112.025C390.154 112.025 391.111 113.295 391.111 115.453V116.215C391.111 118.471 390.076 119.701 388.543 119.701ZM395.457 121H397.127V106.967H395.457V121ZM404.09 121.166C406.355 121.166 407.713 119.906 408.104 118.207H406.434C406.102 119.164 405.32 119.76 404.129 119.76C402.459 119.76 401.463 118.422 401.463 116.469V116.283H408.24V115.326C408.24 112.504 406.697 110.57 404.012 110.57C401.316 110.57 399.783 112.504 399.783 115.209V116.361C399.783 119.281 401.414 121.166 404.09 121.166ZM401.463 114.926V114.896C401.463 113.275 402.459 111.977 404.021 111.977C405.555 111.977 406.561 113.266 406.561 114.896V114.926H401.463Z" fill="black"/>
</svg>
